<?xml version="1.0" encoding="utf-8"?>
<!-- Generator: Adobe Illustrator 23.0.1, SVG Export Plug-In . SVG Version: 6.00 Build 0)  -->
<svg version="1.1" id="Layer_1" xmlns="http://www.w3.org/2000/svg" xmlns:xlink="http://www.w3.org/1999/xlink" x="0px" y="0px"
	 viewBox="0 0 609 137.1" style="enable-background:new 0 0 609 137.1;" xml:space="preserve">
<style type="text/css">
	.st0{fill:#FF0000;}
	.st1{fill:#EAE9E9;}
	.st2{fill:#1E232B;}
</style>
<title>logotvAsset 2</title>
<g>
	<rect x="62.9" y="2" class="st0" width="62.1" height="93"/>
	<path d="M186,95h-61V2h48.1c3.5,0.7,6.9,2.5,9.4,5.3c1.9,1.9,3.2,4.2,3.5,7.2C186,14.6,186,95,186,95z"/>
	<path class="st1" d="M62.9,95h-61V16.3c0-3.5,1.2-7.2,4.1-9.5c2.3-2.8,5.5-4.2,9.4-4.8h47.7L62.9,95L62.9,95z"/>
	<path class="st2" d="M1.9,95.2v26.5c0,8.3,6.9,15.4,15.4,15.4l153.3-0.7c8.3,0,15.4-6.9,15.4-15.4V94.5L1.9,95.2z"/>
</g>
</svg>
