<?xml version="1.0" encoding="utf-8"?>
<!-- Generator: Adobe Illustrator 23.0.1, SVG Export Plug-In . SVG Version: 6.00 Build 0)  -->
<svg version="1.1" id="Layer_1" xmlns="http://www.w3.org/2000/svg" xmlns:xlink="http://www.w3.org/1999/xlink" x="0px" y="0px"
	 viewBox="0 0 476.3 75" style="enable-background:new 0 0 476.3 75;" xml:space="preserve">
<style type="text/css">
	.st0{fill:#FF0000;}
	.st1{fill:#EAE9E9;}
	.st2{fill:#1E232B;}
	.st3{enable-background:new    ;}
</style>
<title>logotvAsset 2</title>
<rect x="25.5" y="6.2" class="st0" width="26" height="38.9"/>
<path d="M77,45.1H51.5V6.2h20.1c1.5,0.3,2.9,1,3.9,2.2c0.8,0.8,1.3,1.8,1.5,3V45.1z"/>
<path class="st1" d="M25.5,45.1H0V12.2c0-1.5,0.5-3,1.7-4c1-1.2,2.3-1.8,3.9-2h20V45.1z"/>
<path class="st2" d="M0,45.2v11.1c0,3.5,2.9,6.4,6.4,6.4l64.1-0.3c3.5,0,6.4-2.9,6.4-6.4V44.9L0,45.2z"/>
<g>
	<g class="st3">
		<path d="M100.2,40.4h-6.7V12.6h-7V8h20.9v4.6h-7.2V40.4z"/>
	</g>
	<g class="st3">
		<path d="M117.8,40.4L109.3,8h6.9l5.2,20.7L125.7,8h6.7l-7.6,32.4C124.8,40.4,117.8,40.4,117.8,40.4z"/>
	</g>
	<g class="st3">
		<path d="M156.1,40.4h-6.7V12.6h-7V8h20.9v4.6h-7.2V40.4z"/>
	</g>
	<g class="st3">
		<path d="M170.4,33.1l-1.5,7.2h-6.7L169.4,8h8.7l7.8,32.4h-6.9l-1.5-7.2H170.4z M173.9,15.7l-2.6,13h5.2L173.9,15.7z"/>
	</g>
	<g class="st3">
		<path d="M188.9,8h9.3c7.4,0,11.1,2.8,11.1,8.3c0,1.7-0.4,3.1-1.1,4.3c-0.7,1.1-1.9,2-3.7,3c2,0.7,3.3,1.7,4.3,3
			c0.9,1.3,1.3,3,1.3,5.2c0,3.3-1.1,5.6-3.3,7c-0.9,0.6-1.9,1.1-3,1.3s-2.8,0.4-5,0.4h-9.8V8z M196.8,21.3c2,0,3.5-0.4,4.4-1.1
			c0.9-0.7,1.3-2,1.3-3.7c0-2.8-1.5-4.1-4.6-4.1h-2.6v8.9H196.8z M198,35.7c1.9,0,3.1-0.4,4.1-1.1c0.9-0.7,1.3-1.9,1.3-3.5
			c0-2.2-0.7-3.7-2-4.4c-0.4-0.2-0.9-0.4-1.5-0.6c-0.6-0.2-1.5-0.2-2.4-0.2h-1.7v10h2.2V35.7z"/>
	</g>
	<g class="st3">
		<path d="M234.6,29.8c0,1.1,0,2.2-0.2,3.1c0,0.9-0.2,1.7-0.4,2.2c-0.2,0.6-0.6,1.1-0.7,1.7c-0.4,0.6-0.7,0.9-1.3,1.5
			c-0.9,0.7-2,1.5-3.3,1.9c-1.3,0.4-2.8,0.7-4.4,0.7c-1.7,0-3-0.2-4.4-0.7c-1.3-0.4-2.4-1.1-3.3-1.9c-0.6-0.6-0.9-0.9-1.3-1.5
			c-0.4-0.6-0.6-1.1-0.7-1.7c-0.2-0.7-0.4-1.5-0.4-2.2c0-0.9-0.2-1.9-0.2-3.1V18.5c0-1.1,0-2.2,0.2-3.1c0-0.9,0.2-1.7,0.4-2.2
			c0.2-0.7,0.6-1.3,0.7-1.7c0.4-0.6,0.7-0.9,1.3-1.5c0.9-0.7,2-1.5,3.3-1.9c1.3-0.4,2.8-0.7,4.4-0.7c1.7,0,3,0.2,4.4,0.7
			c1.3,0.4,2.6,1.1,3.3,1.9c0.6,0.6,0.9,0.9,1.3,1.5c0.4,0.6,0.6,1.1,0.7,1.7c0.2,0.6,0.4,1.3,0.4,2.2c0,0.9,0.2,1.9,0.2,3.1V29.8z
			 M220.4,29.3c0,1.7,0,2.8,0.2,3.5c0,0.7,0.2,1.3,0.4,1.7c0.6,1.1,1.7,1.7,3.3,1.7c1.9,0,3-0.7,3.3-2.2c0.2-0.6,0.2-2.2,0.2-4.8
			V18.9c0-1.7,0-2.8-0.2-3.5c0-0.7-0.2-1.3-0.4-1.7c-0.6-1.1-1.7-1.7-3.1-1.7c-1.9,0-3,0.7-3.5,2.2c0,0.4-0.2,0.9-0.2,1.7
			c0,0.9,0,1.9,0,3.1L220.4,29.3L220.4,29.3z"/>
	</g>
	<g class="st3">
		<path d="M245.4,33.1l-1.5,7.2h-6.7L244.4,8h8.7l7.8,32.4h-6.9l-1.5-7.2H245.4z M248.9,15.7l-2.6,13h5.2L248.9,15.7z"/>
		<path d="M280,40.4l-9.8-20v20h-6.1V8h6.7l9.1,19.3V8h6.1v32.4H280z"/>
		<path d="M308.9,12.4h-11.5v8.7h8.3v4.6h-8.3v10h11.5v4.6h-18.1V8h18.1V12.4z"/>
		<path d="M328.5,40.4l-9.6-20v20h-6.1V8h6.7l9.1,19.3V8h6.1v32.4H328.5z"/>
		<path d="M352.4,15.9c-0.2-1.5-0.6-2.4-1.1-3.1c-0.6-0.6-1.5-0.9-2.8-0.9c-1.1,0-2,0.4-2.8,0.9c-0.7,0.6-0.9,1.3-0.9,2.4
			c0,0.6,0,1.1,0.2,1.5c0.2,0.6,0.6,0.9,0.9,1.5c0.4,0.6,1.1,1.1,1.9,1.7c0.7,0.6,1.7,1.3,3,2c1.7,1.1,3.1,2.2,4.3,3.1
			s2,1.7,2.6,2.6c0.6,0.7,1.1,1.7,1.3,2.4s0.4,1.7,0.4,2.6c0,1.3-0.2,2.4-0.7,3.3c-0.6,1.1-1.3,1.9-2.2,2.6c-0.9,0.7-2,1.3-3.3,1.7
			c-1.3,0.4-2.8,0.6-4.3,0.6c-1.7,0-3.1-0.2-4.4-0.6c-1.3-0.4-2.4-1.1-3.5-1.9c-0.9-0.7-1.7-1.7-2.2-2.8c-0.6-1.1-0.9-2.2-0.9-3.5
			l6.3-0.7c0.2,3.3,1.7,5,4.8,5c1.3,0,2.2-0.4,3-0.9c0.7-0.6,1.1-1.5,1.1-2.6c0-1.1-0.6-2.4-1.7-3.5c-0.2-0.2-0.6-0.6-0.7-0.7
			c-0.2-0.2-0.6-0.4-0.9-0.7c-0.4-0.2-0.7-0.6-1.3-0.9c-0.6-0.4-1.3-0.9-2.2-1.5c-1.5-0.9-2.6-1.9-3.5-2.6c-0.9-0.7-1.7-1.7-2.4-2.4
			c-0.7-0.7-1.1-1.5-1.3-2.4c-0.2-0.7-0.4-1.7-0.4-2.6c0-2.4,0.9-4.4,2.8-5.7c1.9-1.5,4.4-2.2,7.6-2.2c5.9,0,9.3,2.6,10,7.8
			L352.4,15.9z"/>
		<path d="M380.7,12.4h-11.5v8.7h8.3v4.6h-8.3v10h11.5v4.6h-18.1V8h18.1V12.4z"/>
	</g>
</g>
<path d="M98.7,58l0.7,5.4h-2.2l-0.4-3.2h-2.3L94,63.4h-2.2l0.7-5.4l1.6-9.9h3L98.7,58z M96.4,58l-0.8-6.4L94.7,58H96.4z"/>
<path d="M104.7,48.1h3.2c2,0,2.9,1.1,2.9,3.2v2.3c0,1.6-0.7,2.6-2.1,3.1c-0.3,0.1-0.8,0.2-1.5,0.2h-0.4v6.6h-2.2V48.1z M106.9,50.3
	v4.4h0.5c0.3,0,0.5,0,0.6-0.1c0.4-0.2,0.6-0.5,0.6-1v-2.3c0-0.7-0.3-1-1-1H106.9z"/>
<path d="M112.4,48.1h3.2c2,0,2.9,1.1,2.9,3.2v2.3c0,1.3-0.6,2.2-1.7,2.7l2.5,7.1h-2.4l-2-6.7l-0.3,0v6.7h-2.2V48.1z M114.6,50.3v4.4
	h0.5c0.3,0,0.5,0,0.6-0.1c0.4-0.2,0.6-0.5,0.6-1v-2.3c0-0.7-0.3-1-1-1H114.6z"/>
<path d="M120.6,48.1h2.2v15.3h-2.2V48.1z"/>
<path d="M129.7,58.6l2.6-10.5h2.2v15.3h-2.1v-8.6l-1.9,8.6H129l-1.9-8.6v8.6h-2.1V48.1h2.2L129.7,58.6z"/>
<path d="M136.5,48.1h5.7v2.2h-3.5v4.4h3v2.2h-3v4.4h3.5v2.2h-5.7V48.1z"/>
<path d="M143.9,48.1h2.2v15.3h-2.2V48.1z"/>
<path d="M148.1,48.1h3.2c2,0,2.9,1.1,2.9,3.2v2.3c0,1.3-0.6,2.2-1.7,2.7l2.5,7.1h-2.4l-2-6.7l-0.3,0v6.7h-2.2V48.1z M150.3,50.3v4.4
	h0.5c0.3,0,0.5,0,0.6-0.1c0.4-0.2,0.6-0.5,0.6-1v-2.3c0-0.7-0.3-1-1-1H150.3z"/>
<path d="M162.4,58l0.7,5.4h-2.2l-0.4-3.2h-2.3l-0.4,3.2h-2.2l0.7-5.4l1.6-9.9h3L162.4,58z M160.2,58l-0.8-6.4l-0.8,6.4H160.2z"/>
<path d="M174.1,48.1v2.2h-2.1v13.1h-2.2V50.3h-2.1v-2.2H174.1z"/>
<path d="M180.1,63.4h-3l-1.6-9.9l-0.7-5.4h2.2l1.5,11.8l1.6-11.8h2.2l-0.7,5.4L180.1,63.4z"/>
<path d="M193.8,60.4c0,2.1-1.1,3.2-3.2,3.2c-2.1,0-3.2-1.1-3.2-3.2v-9.3c0-2.1,1.1-3.2,3.2-3.2c2.1,0,3.2,1.1,3.2,3.2V60.4z
	 M191.6,51.1c0-0.7-0.3-1-1-1h0c-0.6,0-1,0.3-1,1v9.3c0,0.7,0.3,1,1,1c0.6,0,1-0.3,1-1V51.1z"/>
<path d="M195.7,48.1h2.2L200,57v-8.9h2v15.3h-2.2l-2-8.6v8.6h-2.1V48.1z"/>
<path d="M204.1,63.4V48.1h2.2v13.1h3.5v2.2H204.1z"/>
<path d="M211.2,48.1h2.2v15.3h-2.2V48.1z"/>
<path d="M215.4,48.1h2.2l2.1,8.9v-8.9h2v15.3h-2.2l-2-8.6v8.6h-2.1V48.1z"/>
<path d="M223.8,48.1h5.7v2.2H226v4.4h3v2.2h-3v4.4h3.5v2.2h-5.7V48.1z"/>
<path d="M235.1,48.1h3.4c2,0,2.9,1.1,2.9,3.2v8.9c0,2.1-1,3.2-3.1,3.2h-3.3V48.1z M237.3,50.3v10.9h1c0.6,0,1-0.3,1-1v-8.9
	c0-0.7-0.3-1-1-1H237.3z"/>
<path d="M243.3,48.1h5.7v2.2h-3.5v4.4h3v2.2h-3v4.4h3.5v2.2h-5.7V48.1z"/>
<path d="M260.3,48.1v2.2h-2.1v13.1h-2.2V50.3H254v-2.2H260.3z"/>
<path d="M267.5,58l0.7,5.4h-2.2l-0.4-3.2h-2.3l-0.4,3.2h-2.2l0.7-5.4l1.6-9.9h3L267.5,58z M265.2,58l-0.8-6.4l-0.8,6.4H265.2z"/>
<path d="M269.5,48.1h3.4c2,0,2.9,1.1,2.9,3.2v2.3c0,1-0.4,1.7-1.2,2.1c0.8,0.4,1.2,1.1,1.2,2.1v2.3c0,2.1-1,3.2-3.1,3.2h-3.3V48.1z
	 M271.7,50.3v4.4h0.7c0.3,0,0.5,0,0.6-0.1c0.4-0.2,0.6-0.5,0.6-1v-2.3c0-0.7-0.3-1-1-1H271.7z M271.7,56.8v4.4h1c0.6,0,1-0.3,1-1
	v-2.3c0-0.5-0.2-0.8-0.6-1c-0.1,0-0.3-0.1-0.6-0.1H271.7z"/>
<path d="M283.8,60.4c0,2.1-1.1,3.2-3.2,3.2c-2.1,0-3.2-1.1-3.2-3.2v-9.3c0-2.1,1.1-3.2,3.2-3.2c2.1,0,3.2,1.1,3.2,3.2V60.4z
	 M281.6,51.1c0-0.7-0.3-1-1-1h0c-0.6,0-1,0.3-1,1v9.3c0,0.7,0.3,1,1,1c0.6,0,1-0.3,1-1V51.1z"/>
<path d="M292,58l0.7,5.4h-2.2l-0.4-3.2h-2.3l-0.4,3.2h-2.2l0.7-5.4l1.6-9.9h3L292,58z M287.3,47.8l-1.1-0.6l0.3-0.6
	c0.3-0.7,0.8-1.1,1.4-1.1h0.1c0.3,0,0.8,0.2,1.3,0.5c0.3,0.2,0.5,0.2,0.7,0.2c0.1,0,0.3-0.1,0.3-0.2l0.3-0.5l1,0.7l-0.3,0.5
	c-0.3,0.5-0.7,0.8-1.2,0.8H290c-0.3,0-0.8-0.2-1.3-0.5c-0.3-0.2-0.5-0.3-0.6-0.3h0c-0.1,0-0.3,0.1-0.4,0.4L287.3,47.8z M289.7,58
	l-0.8-6.4l-0.8,6.4H289.7z"/>
<path d="M300.3,60.4c0,2.1-1.1,3.2-3.2,3.2c-2.1,0-3.2-1.1-3.2-3.2v-9.3c0-2.1,1.1-3.2,3.2-3.2c2.1,0,3.2,1.1,3.2,3.2V60.4z
	 M298.1,51.1c0-0.7-0.3-1-1-1h0c-0.6,0-1,0.3-1,1v9.3c0,0.7,0.3,1,1,1c0.6,0,1-0.3,1-1V51.1z"/>
<path d="M306.2,48.1h3.4c2,0,2.9,1.1,2.9,3.2v8.9c0,2.1-1,3.2-3.1,3.2h-3.3V48.1z M308.4,50.3v10.9h1c0.6,0,1-0.3,1-1v-8.9
	c0-0.7-0.3-1-1-1H308.4z"/>
<path d="M320.5,58l0.7,5.4H319l-0.4-3.2h-2.3l-0.4,3.2h-2.2l0.7-5.4l1.6-9.9h3L320.5,58z M318.3,58l-0.8-6.4l-0.8,6.4H318.3z"/>
<path d="M326.4,51.1c0-2.1,1.1-3.2,3.2-3.2c2.1,0,3.2,1.1,3.2,3.2v2.1h-2.2v-2.1c0-0.7-0.3-1-1-1h0c-0.6,0-1,0.3-1,1v1.4
	c0,0.7,0.7,1.5,2.1,2.5c1.4,1,2.1,2.2,2.1,3.5v1.9c0,2.1-1.1,3.2-3.2,3.2c-2.1,0-3.2-1.1-3.2-3.2v-2.1h2.2v2.1c0,0.7,0.3,1,1,1
	c0.6,0,1-0.3,1-1v-1.7c0-0.7-0.7-1.6-2.1-2.6c-1.4-1-2.1-2.2-2.1-3.6V51.1z"/>
<path d="M334.6,48.1h5.7v2.2h-3.5v4.4h3v2.2h-3v4.4h3.5v2.2h-5.7V48.1z"/>
<path d="M341.9,48.1h3.2c2,0,2.9,1.1,2.9,3.2v2.3c0,1.3-0.6,2.2-1.7,2.7l2.5,7.1h-2.4l-2-6.7l-0.3,0v6.7h-2.2V48.1z M344.1,50.3v4.4
	h0.5c0.3,0,0.5,0,0.6-0.1c0.4-0.2,0.6-0.5,0.6-1v-2.3c0-0.7-0.3-1-1-1H344.1z"/>
<path d="M350.1,48.1h3.2c2,0,2.9,1.1,2.9,3.2v2.3c0,1.3-0.6,2.2-1.7,2.7l2.5,7.1h-2.4l-2-6.7l-0.3,0v6.7h-2.2V48.1z M352.3,50.3v4.4
	h0.5c0.3,0,0.5,0,0.6-0.1c0.4-0.2,0.6-0.5,0.6-1v-2.3c0-0.7-0.3-1-1-1H352.3z"/>
<path d="M364.3,58l0.7,5.4h-2.2l-0.4-3.2h-2.3l-0.4,3.2h-2.2l0.7-5.4l1.6-9.9h3L364.3,58z M362.1,58l-0.8-6.4l-0.8,6.4H362.1z"/>
<path d="M370.3,48.1h5.7v2.2h-3.5v4.4h3v2.2h-3v4.4h3.5v2.2h-5.7V48.1z"/>
<path d="M381.6,48.1h3.2c2,0,2.9,1.1,2.9,3.2v2.3c0,1.3-0.6,2.2-1.7,2.7l2.5,7.1h-2.4l-2-6.7l-0.3,0v6.7h-2.2V48.1z M383.9,50.3v4.4
	h0.5c0.3,0,0.5,0,0.6-0.1c0.4-0.2,0.6-0.5,0.6-1v-2.3c0-0.7-0.3-1-1-1H383.9z"/>
<path d="M389.8,48.1h5.7v2.2H392v4.4h3v2.2h-3v4.4h3.5v2.2h-5.7V48.1z"/>
<path d="M403.3,60.4c0,2.1-1.1,3.2-3.2,3.2c-2.1,0-3.2-1.1-3.2-3.2v-9.3c0-2.1,1.1-3.2,3.2-3.2c2.1,0,3.2,1.1,3.2,3.2v2.1h-2.2v-2.1
	c0-0.7-0.3-1-1-1h0c-0.6,0-1,0.3-1,1v9.3c0,0.7,0.3,1,1,1c0.6,0,1-0.3,1-1v-3.6H400v-2.2h3.3V60.4z"/>
<path d="M405.2,48.1h2.2v15.3h-2.2V48.1z"/>
<path d="M415.8,58l0.7,5.4h-2.2l-0.4-3.2h-2.3l-0.4,3.2h-2.2l0.7-5.4l1.6-9.9h3L415.8,58z M411.1,47.8l-1.1-0.6l0.3-0.6
	c0.3-0.7,0.8-1.1,1.4-1.1h0.1c0.3,0,0.8,0.2,1.3,0.5c0.3,0.2,0.5,0.2,0.7,0.2c0.1,0,0.3-0.1,0.3-0.2l0.3-0.5l1,0.7l-0.3,0.5
	c-0.3,0.5-0.7,0.8-1.2,0.8h-0.1c-0.3,0-0.8-0.2-1.3-0.5c-0.3-0.2-0.5-0.3-0.6-0.3h0c-0.1,0-0.3,0.1-0.4,0.4L411.1,47.8z M413.6,58
	l-0.8-6.4l-0.8,6.4H413.6z"/>
<path d="M424.2,60.4c0,2.1-1.1,3.2-3.2,3.2c-2.1,0-3.2-1.1-3.2-3.2v-9.3c0-2.1,1.1-3.2,3.2-3.2c2.1,0,3.2,1.1,3.2,3.2V60.4z
	 M422,51.1c0-0.7-0.3-1-1-1h0c-0.6,0-1,0.3-1,1v9.3c0,0.7,0.3,1,1,1c0.6,0,1-0.3,1-1V51.1z"/>
<path d="M428.5,48.1l-0.2,11.2h-2.2L426,48.1H428.5z M426,60.9h2.5v2.5H426V60.9z"/>
</svg>
