<?xml version="1.0" encoding="utf-8"?>
<!-- Generator: Adobe Illustrator 23.0.1, SVG Export Plug-In . SVG Version: 6.00 Build 0)  -->
<svg version="1.1" id="Layer_1" xmlns="http://www.w3.org/2000/svg" xmlns:xlink="http://www.w3.org/1999/xlink" x="0px" y="0px"
	 viewBox="0 0 629 77.1" style="enable-background:new 0 0 629 77.1;" xml:space="preserve">
<style type="text/css">
	.st0{fill:#FF0000;}
	.st1{fill:#EAE9E9;}
	.st2{fill:#1E232B;}
</style>
<title>logotvAsset 2</title>
<rect x="46.5" y="0.9" class="st0" width="35.1" height="52.6"/>
<path d="M116.1,53.5H81.6V0.9h27.2c2,0.4,3.9,1.4,5.3,3c1.1,1.1,1.8,2.4,2,4.1C116.1,8,116.1,53.5,116.1,53.5z"/>
<path class="st1" d="M46.5,53.5H12V9c0-2,0.7-4.1,2.3-5.4c1.3-1.6,3.1-2.4,5.3-2.7h27L46.5,53.5L46.5,53.5z"/>
<path class="st2" d="M12,53.6v15c0,4.7,3.9,8.7,8.7,8.7l86.7-0.4c4.7,0,8.7-3.9,8.7-8.7v-15L12,53.6z"/>
<g>
	<path d="M158.4,12.4l0.1,4.8v31.2c-1.5,0.3-3.2,0.4-5.3,0.4s-3.8-0.1-5.2-0.4V12.4l-4.2,0.1h-6.8c-0.3-1.3-0.4-2.7-0.4-4.4
		s0.1-3.1,0.4-4.4h32.4c0.3,1.1,0.5,2.5,0.5,4.2s-0.4,2.8-1.3,3.5c-0.9,0.7-2.3,1.1-4.2,1.1h-1.9L158.4,12.4L158.4,12.4z"/>
	<path d="M190.8,39.7l8.6-36c1.1-0.3,2.4-0.4,4.1-0.4c2.3,0,4.1,0.2,5.4,0.7l0.4,0.5l-12.3,44c-2.5,0.3-5,0.4-7.5,0.4
		c-2.5,0-4.3-0.3-5.4-1s-2-1.9-2.5-3.8L170.6,4.5c2.4-1,4.3-1.5,5.8-1.5c1.8,0,3.2,0.4,4.1,1.2c0.9,0.8,1.6,2.1,2,3.9l5.1,18.7
		c0.8,2.9,1.6,6.9,2.5,11.9C190.1,39.4,190.4,39.7,190.8,39.7z"/>
	<path d="M246.1,12.4l0.1,4.8v31.2c-1.5,0.3-3.2,0.4-5.3,0.4s-3.8-0.1-5.2-0.4V12.4l-4.2,0.1h-6.8c-0.3-1.3-0.4-2.7-0.4-4.4
		s0.1-3.1,0.4-4.4h32.4c0.3,1.1,0.5,2.5,0.5,4.2s-0.4,2.8-1.3,3.5c-0.9,0.7-2.3,1.1-4.2,1.1h-1.9L246.1,12.4L246.1,12.4z"/>
	<path d="M269.6,39.1c-1.2,0-2.1,0-2.6-0.1l-2.8,9.5c-1,0.3-2.5,0.4-4.4,0.4c-2.1,0-3.8-0.2-5.1-0.7l-0.3-0.5l14.4-44
		c1.7-0.3,3.7-0.4,6-0.4c2.6,0,4.6,0.2,6.2,0.5L295,47.8c-1.5,0.8-3.3,1.2-5.2,1.2c-2.3,0-3.9-0.4-4.8-1.2c-0.9-0.8-1.7-2.3-2.4-4.5
		l-1.2-4.3c-0.6,0-1.4,0.1-2.6,0.1H269.6z M269.4,30.8l2.6-0.1h4.8c0.2,0,0.6,0,1.1,0c0.5,0,1,0,1.2,0l-1.1-4.1
		c-1-3.7-2.3-8.2-3.6-13.5H274c-0.4,1.9-1.4,6.1-3.1,12.5L269.4,30.8z"/>
	<path d="M301,3.5c3.5-0.1,6.6-0.2,9.1-0.2c2.5,0,4.5-0.1,6.1-0.1c4.8,0,8.5,1,11.3,3c2.7,2,4.1,5,4.1,9c0,1.9-0.5,3.7-1.6,5.4
		c-1.1,1.7-2.5,2.9-4.2,3.6c1.1,0.4,2.1,0.9,3.1,1.7c1,0.8,1.8,1.7,2.5,2.7c0.7,1,1.3,2.1,1.7,3.3c0.4,1.2,0.6,2.4,0.6,3.7
		c0,4.5-1.4,7.8-4.3,10c-2.9,2.2-6.9,3.2-12.2,3.2c-1.6,0-3.8,0-6.4-0.1c-2.7,0-5.9-0.1-9.7-0.2l-0.5-0.5V4L301,3.5z M311,10.6v10.6
		h4.6c2.1,0,3.6-0.5,4.4-1.5c0.8-1,1.3-2.3,1.3-3.8c0-1.5-0.4-2.7-1.3-3.7c-0.9-1-2.3-1.5-4.4-1.5c-1,0-1.9,0-2.6,0
		S311.6,10.7,311,10.6z M316.4,28.7H311v12.8c1.1,0,2.4,0,3.8,0c1.4,0,2.7-0.1,3.9-0.3c1.2-0.3,2.2-0.9,3.1-1.9
		c0.8-1,1.2-2.4,1.2-4.2c0-1.7-0.5-3.2-1.6-4.5C320.4,29.3,318.7,28.7,316.4,28.7z"/>
	<path d="M345.3,45.3c-4.7-3.9-7-10.3-7-19.2c0-3.8,0.4-7.2,1.3-10.1c0.9-2.9,2.2-5.3,3.9-7.3c1.7-2,3.7-3.5,6.1-4.5
		c2.4-1,5.1-1.5,8.1-1.5s5.7,0.5,8.2,1.5c2.4,1,4.5,2.5,6.2,4.5c1.7,2,3,4.4,3.9,7.3c0.9,2.9,1.3,6.3,1.3,10.1s-0.4,7.2-1.3,10.1
		c-0.9,2.9-2.2,5.3-3.9,7.3c-1.7,2-3.7,3.5-6.2,4.5c-2.4,1-5.2,1.5-8.2,1.5C352.8,49.4,348.6,48.1,345.3,45.3z M350.6,36.2
		c1.2,3.4,3.6,5.1,7.2,5.1c1.8,0,3.2-0.4,4.4-1.3c1.1-0.9,2-2,2.6-3.4c0.6-1.4,1.1-2.9,1.3-4.6s0.3-3.4,0.3-5.1
		c0-1.5-0.1-3.2-0.2-5.1c-0.1-1.9-0.4-3.6-1-5.3c-0.5-1.6-1.4-3-2.5-4.1c-1.1-1.1-2.8-1.7-5-1.7c-2.1,0-3.7,0.5-4.8,1.6
		c-1.1,1.1-1.9,2.4-2.5,4c-0.5,1.6-0.9,3.2-1,5c-0.1,1.8-0.2,3.3-0.2,4.7c0,2,0.1,3.8,0.3,5.4C349.7,33,350.1,34.6,350.6,36.2z"/>
	<path d="M394.9,39.1c-1.2,0-2.1,0-2.6-0.1l-2.8,9.5c-1,0.3-2.5,0.4-4.4,0.4c-2.1,0-3.8-0.2-5.1-0.7l-0.3-0.5l14.4-44
		c1.7-0.3,3.7-0.4,6-0.4c2.6,0,4.6,0.2,6.2,0.5l14.2,44.1c-1.5,0.8-3.3,1.2-5.2,1.2c-2.3,0-3.9-0.4-4.8-1.2
		c-0.9-0.8-1.7-2.3-2.4-4.5l-1.2-4.3c-0.6,0-1.4,0.1-2.6,0.1H394.9z M394.7,30.8l2.6-0.1h4.8c0.2,0,0.6,0,1.1,0c0.5,0,1,0,1.2,0
		l-1.1-4.1c-1-3.7-2.3-8.2-3.6-13.5h-0.4c-0.4,1.9-1.4,6.1-3.1,12.5L394.7,30.8z"/>
	<path d="M461.2,3.2l0.5,0.5v44.6c-1.8,0.4-3.8,0.6-6.2,0.6c-2.4,0-4.5-0.1-6.3-0.4L438.8,25c-1.2-2.7-2.5-5.8-3.7-9.3l-0.2,0.1
		c0.5,6.4,0.8,12.9,0.8,19.6v13.1c-1.4,0.3-3,0.4-4.9,0.4c-1.9,0-3.5-0.1-4.9-0.4V3.8c1.7-0.4,3.7-0.6,6-0.6c2.3,0,4.4,0.1,6.3,0.4
		l10.2,23.4c1.8,4.3,3.2,7.7,4.1,10l0.3-0.1c-0.5-6.1-0.8-12.5-0.8-19.4v-8c0-2.3,0.5-3.9,1.4-4.9s2.4-1.5,4.5-1.5H461.2z"/>
	<path d="M481.9,35.2l-0.1,4.7V40c2-0.1,3.6-0.1,4.8-0.1h15.2c0,1.6-0.1,2.9-0.2,3.7c-0.5,3.4-2.8,5.1-6.7,5.1h-17.5
		c-1.9,0-3.4-0.5-4.4-1.6c-1.1-1.1-1.6-2.6-1.6-4.5V4.1l0.5-0.5h28.3c0.3,1.3,0.4,2.6,0.4,4.1c0,1.5-0.3,3-0.9,4.7h-17.9l0.1,4.7
		v4.6c1.1,0,2.6-0.1,4.4-0.1h10c0.4,1.2,0.6,2.6,0.6,4.2c0,1.6-0.2,3-0.6,4.3h-14.4V35.2z"/>
	<path d="M544.5,3.2l0.5,0.5v44.6c-1.8,0.4-3.8,0.6-6.2,0.6c-2.4,0-4.5-0.1-6.3-0.4L522.1,25c-1.2-2.7-2.5-5.8-3.7-9.3l-0.2,0.1
		c0.5,6.4,0.8,12.9,0.8,19.6v13.1c-1.4,0.3-3,0.4-4.9,0.4c-1.9,0-3.5-0.1-4.9-0.4V3.8c1.7-0.4,3.7-0.6,6-0.6c2.3,0,4.4,0.1,6.3,0.4
		l10.2,23.4c1.8,4.3,3.2,7.7,4.1,10l0.3-0.1c-0.5-6.1-0.8-12.5-0.8-19.4v-8c0-2.3,0.5-3.9,1.4-4.9s2.4-1.5,4.5-1.5H544.5z"/>
	<path d="M550.8,44.6c0.1-1.4,0.6-2.9,1.3-4.3c0.8-1.4,1.7-2.6,2.7-3.5c4.7,2.8,9.1,4.3,13.3,4.3c1.8,0,3.2-0.4,4-1.2
		c0.9-0.8,1.3-1.9,1.3-3.1c0-2.1-1.4-3.7-4.1-4.9l-7.7-3.3c-3-1.4-5.3-3-7-4.9c-1.6-1.9-2.4-4.3-2.4-7.3c0-2,0.4-3.8,1.2-5.5
		c0.8-1.7,1.9-3.1,3.4-4.3c1.5-1.2,3.2-2.2,5.2-2.9c2-0.7,4.2-1,6.7-1c4.9,0,9.8,1.2,14.8,3.7c-0.2,3.4-1.4,6-3.5,7.9
		c-4.5-2.1-8.4-3.2-11.8-3.2c-1.8,0-3.1,0.4-3.9,1.2c-0.9,0.8-1.3,1.7-1.3,2.7c0,1.7,1.3,3.1,3.9,4.1l7.9,3.3
		c3.3,1.4,5.8,3.2,7.4,5.4c1.6,2.2,2.5,4.7,2.5,7.6c0,2.1-0.4,3.9-1.1,5.6c-0.7,1.7-1.8,3.2-3.3,4.4c-1.5,1.2-3.3,2.2-5.5,2.9
		c-2.2,0.7-4.7,1-7.7,1C561.4,49.4,556,47.8,550.8,44.6z"/>
	<path d="M601.8,35.2l-0.1,4.7V40c2-0.1,3.6-0.1,4.8-0.1h15.2c0,1.6-0.1,2.9-0.2,3.7c-0.5,3.4-2.8,5.1-6.7,5.1h-17.5
		c-1.9,0-3.4-0.5-4.4-1.6c-1.1-1.1-1.6-2.6-1.6-4.5V4.1l0.5-0.5h28.3c0.3,1.3,0.4,2.6,0.4,4.1c0,1.5-0.3,3-0.9,4.7h-17.9l0.1,4.7
		v4.6c1.1,0,2.6-0.1,4.4-0.1h10c0.4,1.2,0.6,2.6,0.6,4.2c0,1.6-0.2,3-0.6,4.3h-14.4V35.2z"/>
</g>
<g>
	<path d="M142.6,65.8c-0.3,0-0.5,0-0.6,0l-0.6,2.2c-0.2,0.1-0.6,0.1-1,0.1c-0.5,0-0.9-0.1-1.2-0.2l-0.1-0.1l3.3-10
		c0.4-0.1,0.8-0.1,1.4-0.1c0.6,0,1.1,0,1.4,0.1l3.2,10c-0.3,0.2-0.7,0.3-1.2,0.3c-0.5,0-0.9-0.1-1.1-0.3c-0.2-0.2-0.4-0.5-0.5-1
		l-0.3-1c-0.1,0-0.3,0-0.6,0H142.6z M142.6,63.9l0.6,0h1.1c0,0,0.1,0,0.3,0c0.1,0,0.2,0,0.3,0l-0.3-0.9c-0.2-0.8-0.5-1.9-0.8-3.1
		h-0.1c-0.1,0.4-0.3,1.4-0.7,2.8L142.6,63.9z"/>
	<path d="M156.5,64.8h-1.2V68c-0.3,0.1-0.7,0.1-1.2,0.1c-0.5,0-0.9,0-1.2-0.1V57.8l0.1-0.1c0.9,0,1.6,0,2.2,0s1,0,1.3,0
		c0.5,0,1,0.1,1.5,0.2s0.8,0.4,1.2,0.7c0.3,0.3,0.6,0.7,0.7,1.1c0.2,0.4,0.3,1,0.3,1.5s-0.1,1.1-0.3,1.5s-0.4,0.8-0.7,1.1
		c-0.3,0.3-0.7,0.5-1.2,0.7S157,64.8,156.5,64.8z M155.3,59.5V63c0.3,0,0.5,0,0.7,0s0.3,0,0.3,0c0.3,0,0.5,0,0.7-0.1
		s0.3-0.2,0.4-0.4c0.1-0.2,0.2-0.3,0.2-0.5c0-0.2,0.1-0.4,0.1-0.7c0-0.2,0-0.4-0.1-0.6c-0.1-0.2-0.1-0.4-0.2-0.6
		c-0.1-0.2-0.2-0.3-0.4-0.4c-0.2-0.1-0.4-0.1-0.6-0.1c-0.2,0-0.4,0-0.6,0C155.6,59.5,155.5,59.5,155.3,59.5z"/>
	<path d="M169,60.9c0,0.3,0,0.6-0.1,0.9c-0.1,0.3-0.2,0.6-0.4,0.8c-0.2,0.2-0.4,0.4-0.6,0.6c-0.2,0.2-0.5,0.3-0.7,0.4
		c0.5,0.2,0.9,0.6,1.1,1.4l0.4,1.3c0.2,0.5,0.4,0.9,0.7,1.1c-0.1,0.2-0.4,0.4-0.7,0.5c-0.3,0.1-0.6,0.2-1,0.2
		c-0.4,0-0.6-0.1-0.8-0.3c-0.2-0.2-0.4-0.6-0.6-1.1l-0.5-1.6c-0.1-0.3-0.3-0.5-0.4-0.7s-0.5-0.2-0.8-0.2h-0.6V68
		c-0.3,0.1-0.7,0.1-1.2,0.1s-0.9,0-1.2-0.1V57.8l0.1-0.1c0.9,0,1.6,0,2.2,0c0.6,0,1.1,0,1.4,0c0.5,0,1,0.1,1.5,0.2s0.8,0.3,1.1,0.6
		s0.6,0.6,0.7,1C169,59.9,169,60.4,169,60.9z M164.1,59.4v2.9c0.4,0,0.8,0,1.1,0s0.6-0.1,0.8-0.2c0.2-0.1,0.3-0.3,0.4-0.4
		c0.1-0.2,0.1-0.5,0.1-0.8c0-1-0.5-1.5-1.4-1.5c-0.2,0-0.4,0-0.6,0S164.2,59.5,164.1,59.4z"/>
	<path d="M170.9,68V57.8c0.3-0.1,0.7-0.1,1.2-0.1s0.9,0,1.2,0.1V68c-0.3,0.1-0.7,0.1-1.2,0.1S171.2,68,170.9,68z"/>
	<path d="M175.3,67.9l0.8-10.1c0.4-0.1,1-0.1,1.6-0.1c0.6,0,1.1,0,1.6,0.1l0.9,3.7c0.3,1.7,0.5,2.6,0.6,2.7h0.1
		c0-0.2,0.2-1.1,0.6-2.7l0.9-3.7c0.4-0.1,1-0.1,1.6-0.1c0.6,0,1.1,0,1.6,0.1l0.8,10.1c-0.3,0.1-0.7,0.1-1.1,0.1s-0.8,0-1.1-0.1
		l-0.2-4.1c-0.1-1.7-0.1-2.8-0.1-3.4h-0.1l-1.5,6.1c-0.4,0.1-0.8,0.1-1.2,0.1c-0.5,0-0.9,0-1.2-0.1l-1.5-6.1h-0.1c0,0.9,0,2-0.1,3.4
		l-0.2,4.1c-0.3,0-0.7,0.1-1.1,0.1S175.6,68,175.3,67.9z"/>
	<path d="M190.4,64.9l0,1.1v0c0.5,0,0.8,0,1.1,0h3.5c0,0.4,0,0.7,0,0.9c-0.1,0.8-0.6,1.1-1.5,1.1h-4c-0.4,0-0.8-0.1-1-0.4
		s-0.4-0.6-0.4-1v-8.7l0.1-0.1h6.4c0.1,0.3,0.1,0.6,0.1,0.9c0,0.3-0.1,0.7-0.2,1.1h-4.1l0,1.1v1c0.3,0,0.6,0,1,0h2.3
		c0.1,0.3,0.1,0.6,0.1,1s0,0.7-0.1,1h-3.3V64.9z"/>
	<path d="M196.7,68V57.8c0.3-0.1,0.7-0.1,1.2-0.1s0.9,0,1.2,0.1V68c-0.3,0.1-0.7,0.1-1.2,0.1S197,68,196.7,68z"/>
	<path d="M208.7,60.9c0,0.3,0,0.6-0.1,0.9c-0.1,0.3-0.2,0.6-0.4,0.8c-0.2,0.2-0.4,0.4-0.6,0.6c-0.2,0.2-0.5,0.3-0.7,0.4
		c0.5,0.2,0.9,0.6,1.1,1.4l0.4,1.3c0.2,0.5,0.4,0.9,0.7,1.1c-0.1,0.2-0.4,0.4-0.7,0.5c-0.3,0.1-0.6,0.2-1,0.2
		c-0.4,0-0.6-0.1-0.8-0.3c-0.2-0.2-0.4-0.6-0.6-1.1l-0.5-1.6c-0.1-0.3-0.3-0.5-0.4-0.7s-0.5-0.2-0.8-0.2h-0.6V68
		c-0.3,0.1-0.7,0.1-1.2,0.1s-0.9,0-1.2-0.1V57.8l0.1-0.1c0.9,0,1.6,0,2.2,0c0.6,0,1.1,0,1.4,0c0.5,0,1,0.1,1.5,0.2s0.8,0.3,1.1,0.6
		s0.6,0.6,0.7,1C208.6,59.9,208.7,60.4,208.7,60.9z M203.7,59.4v2.9c0.4,0,0.8,0,1.1,0s0.6-0.1,0.8-0.2c0.2-0.1,0.3-0.3,0.4-0.4
		c0.1-0.2,0.1-0.5,0.1-0.8c0-1-0.5-1.5-1.4-1.5c-0.2,0-0.4,0-0.6,0S203.9,59.5,203.7,59.4z"/>
	<path d="M213,65.8c-0.3,0-0.5,0-0.6,0l-0.6,2.2c-0.2,0.1-0.6,0.1-1,0.1c-0.5,0-0.9-0.1-1.2-0.2l-0.1-0.1l3.3-10
		c0.4-0.1,0.8-0.1,1.4-0.1c0.6,0,1.1,0,1.4,0.1l3.2,10c-0.3,0.2-0.7,0.3-1.2,0.3c-0.5,0-0.9-0.1-1.1-0.3c-0.2-0.2-0.4-0.5-0.5-1
		l-0.3-1c-0.1,0-0.3,0-0.6,0H213z M213,63.9l0.6,0h1.1c0,0,0.1,0,0.3,0c0.1,0,0.2,0,0.3,0l-0.3-0.9c-0.2-0.8-0.5-1.9-0.8-3.1H214
		c-0.1,0.4-0.3,1.4-0.7,2.8L213,63.9z"/>
	<path d="M227.2,59.7l0,1.1V68c-0.3,0.1-0.7,0.1-1.2,0.1c-0.5,0-0.9,0-1.2-0.1v-8.2l-1,0h-1.5c-0.1-0.3-0.1-0.6-0.1-1s0-0.7,0.1-1
		h7.4c0.1,0.3,0.1,0.6,0.1,0.9c0,0.4-0.1,0.6-0.3,0.8c-0.2,0.2-0.5,0.2-1,0.2h-0.4L227.2,59.7L227.2,59.7z"/>
	<path d="M234.5,66l2-8.2c0.2-0.1,0.5-0.1,0.9-0.1c0.5,0,0.9,0.1,1.2,0.2l0.1,0.1l-2.8,10c-0.6,0.1-1.1,0.1-1.7,0.1s-1-0.1-1.2-0.2
		c-0.3-0.1-0.4-0.4-0.6-0.9l-2.5-9c0.5-0.2,1-0.3,1.3-0.3c0.4,0,0.7,0.1,0.9,0.3c0.2,0.2,0.4,0.5,0.5,0.9l1.1,4.3
		c0.2,0.7,0.4,1.6,0.6,2.7C234.4,65.9,234.5,66,234.5,66z"/>
	<path d="M244.3,67.2c-1.1-0.9-1.6-2.3-1.6-4.4c0-0.9,0.1-1.6,0.3-2.3c0.2-0.7,0.5-1.2,0.9-1.7c0.4-0.4,0.8-0.8,1.4-1
		c0.5-0.2,1.2-0.3,1.9-0.3s1.3,0.1,1.9,0.3c0.6,0.2,1,0.6,1.4,1c0.4,0.5,0.7,1,0.9,1.7c0.2,0.7,0.3,1.4,0.3,2.3
		c0,0.9-0.1,1.6-0.3,2.3c-0.2,0.7-0.5,1.2-0.9,1.7c-0.4,0.4-0.9,0.8-1.4,1c-0.6,0.2-1.2,0.3-1.9,0.3C246,68.2,245,67.9,244.3,67.2z
		 M245.5,65.2c0.3,0.8,0.8,1.2,1.6,1.2c0.4,0,0.7-0.1,1-0.3c0.3-0.2,0.5-0.5,0.6-0.8c0.1-0.3,0.2-0.7,0.3-1.1c0-0.4,0.1-0.8,0.1-1.1
		c0-0.3,0-0.7,0-1.2c0-0.4-0.1-0.8-0.2-1.2c-0.1-0.4-0.3-0.7-0.6-0.9c-0.3-0.3-0.6-0.4-1.1-0.4c-0.5,0-0.8,0.1-1.1,0.4
		c-0.3,0.2-0.4,0.5-0.6,0.9c-0.1,0.4-0.2,0.7-0.2,1.1c0,0.4,0,0.8,0,1.1c0,0.5,0,0.9,0.1,1.2C245.3,64.4,245.4,64.8,245.5,65.2z"/>
	<path d="M261.3,57.7l0.1,0.1v10.1c-0.4,0.1-0.9,0.1-1.4,0.1s-1,0-1.4-0.1l-2.3-5.3c-0.3-0.6-0.6-1.3-0.9-2.1l0,0
		c0.1,1.5,0.2,2.9,0.2,4.5v3c-0.3,0.1-0.7,0.1-1.1,0.1s-0.8,0-1.1-0.1V57.8c0.4-0.1,0.8-0.1,1.4-0.1s1,0,1.4,0.1l2.3,5.3
		c0.4,1,0.7,1.7,0.9,2.3l0.1,0c-0.1-1.4-0.2-2.9-0.2-4.4v-1.8c0-0.5,0.1-0.9,0.3-1.1s0.5-0.3,1-0.3H261.3z"/>
	<path d="M267.4,65.9h2.6c0,0.4,0,0.7-0.1,1c0,0.3-0.2,0.5-0.5,0.7c-0.3,0.2-0.6,0.3-1.1,0.3H265c-0.4,0-0.8-0.1-1-0.4
		s-0.4-0.6-0.4-1v-8.9l0.1-0.1h0.9c0.9,0,1.4,0.5,1.4,1.5V66C266.4,66,266.9,65.9,267.4,65.9z"/>
	<path d="M271.4,68V57.8c0.3-0.1,0.7-0.1,1.2-0.1c0.5,0,0.9,0,1.2,0.1V68c-0.3,0.1-0.7,0.1-1.2,0.1C272.1,68,271.7,68,271.4,68z"/>
	<path d="M284.2,57.7l0.1,0.1v10.1c-0.4,0.1-0.9,0.1-1.4,0.1s-1,0-1.4-0.1l-2.3-5.3c-0.3-0.6-0.6-1.3-0.9-2.1l0,0
		c0.1,1.5,0.2,2.9,0.2,4.5v3c-0.3,0.1-0.7,0.1-1.1,0.1s-0.8,0-1.1-0.1V57.8c0.4-0.1,0.8-0.1,1.4-0.1s1,0,1.4,0.1l2.3,5.3
		c0.4,1,0.7,1.7,0.9,2.3l0.1,0c-0.1-1.4-0.2-2.9-0.2-4.4v-1.8c0-0.5,0.1-0.9,0.3-1.1s0.5-0.3,1-0.3H284.2z"/>
	<path d="M288.9,64.9l0,1.1v0c0.5,0,0.8,0,1.1,0h3.5c0,0.4,0,0.7,0,0.9c-0.1,0.8-0.6,1.1-1.5,1.1h-4c-0.4,0-0.8-0.1-1-0.4
		c-0.2-0.2-0.4-0.6-0.4-1v-8.7l0.1-0.1h6.4c0.1,0.3,0.1,0.6,0.1,0.9c0,0.3-0.1,0.7-0.2,1.1h-4.1l0,1.1v1c0.3,0,0.6,0,1,0h2.3
		c0.1,0.3,0.1,0.6,0.1,1s0,0.7-0.1,1h-3.3V64.9z"/>
	<path d="M305,67.3c-0.3,0.3-0.7,0.4-1.3,0.6c-0.5,0.1-1.1,0.2-1.7,0.2c-0.3,0-0.8,0-1.3,0s-1.3,0-2.2,0l-0.1-0.1v-10l0.1-0.1
		c0.6,0,1.2,0,1.8,0c0.6,0,1.3,0,2,0c0.8,0,1.6,0.1,2.1,0.4c0.6,0.3,1,0.6,1.4,1.1s0.6,1,0.7,1.6c0.1,0.6,0.2,1.3,0.2,2
		c0,1-0.1,1.9-0.3,2.6C306,66.2,305.6,66.8,305,67.3z M302.2,66.2c1.3,0,2-1.1,2-3.3c0-2.2-0.7-3.3-2-3.3c-0.3,0-0.6,0-0.8,0
		c-0.2,0-0.5,0-0.6,0v6.7c0.2,0,0.4,0,0.6,0C301.6,66.2,301.9,66.2,302.2,66.2z"/>
	<path d="M310.7,64.9l0,1.1v0c0.5,0,0.8,0,1.1,0h3.5c0,0.4,0,0.7,0,0.9c-0.1,0.8-0.6,1.1-1.5,1.1h-4c-0.4,0-0.8-0.1-1-0.4
		c-0.2-0.2-0.4-0.6-0.4-1v-8.7l0.1-0.1h6.4c0.1,0.3,0.1,0.6,0.1,0.9c0,0.3-0.1,0.7-0.2,1.1h-4.1l0,1.1v1c0.3,0,0.6,0,1,0h2.3
		c0.1,0.3,0.1,0.6,0.1,1s0,0.7-0.1,1h-3.3V64.9z"/>
	<path d="M324,59.7l0,1.1V68c-0.3,0.1-0.7,0.1-1.2,0.1s-0.9,0-1.2-0.1v-8.2l-1,0h-1.5c-0.1-0.3-0.1-0.6-0.1-1s0-0.7,0.1-1h7.4
		c0.1,0.3,0.1,0.6,0.1,0.9c0,0.4-0.1,0.6-0.3,0.8c-0.2,0.2-0.5,0.2-1,0.2h-0.4L324,59.7L324,59.7z"/>
	<path d="M329.3,65.8c-0.3,0-0.5,0-0.6,0l-0.6,2.2c-0.2,0.1-0.6,0.1-1,0.1c-0.5,0-0.9-0.1-1.2-0.2l-0.1-0.1l3.3-10
		c0.4-0.1,0.8-0.1,1.4-0.1c0.6,0,1.1,0,1.4,0.1l3.2,10c-0.3,0.2-0.7,0.3-1.2,0.3c-0.5,0-0.9-0.1-1.1-0.3c-0.2-0.2-0.4-0.5-0.5-1
		l-0.3-1c-0.1,0-0.3,0-0.6,0H329.3z M329.3,63.9l0.6,0h1.1c0,0,0.1,0,0.3,0c0.1,0,0.2,0,0.3,0l-0.3-0.9c-0.2-0.8-0.5-1.9-0.8-3.1
		h-0.1c-0.1,0.4-0.3,1.4-0.7,2.8L329.3,63.9z"/>
	<path d="M336.5,57.7c0.8,0,1.5,0,2.1,0s1,0,1.4,0c1.1,0,1.9,0.2,2.6,0.7c0.6,0.5,0.9,1.1,0.9,2c0,0.4-0.1,0.8-0.4,1.2
		s-0.6,0.7-1,0.8c0.2,0.1,0.5,0.2,0.7,0.4c0.2,0.2,0.4,0.4,0.6,0.6s0.3,0.5,0.4,0.8c0.1,0.3,0.1,0.6,0.1,0.8c0,1-0.3,1.8-1,2.3
		c-0.7,0.5-1.6,0.7-2.8,0.7c-0.4,0-0.9,0-1.5,0s-1.3,0-2.2,0l-0.1-0.1v-10L336.5,57.7z M338.8,59.4v2.4h1.1c0.5,0,0.8-0.1,1-0.4
		c0.2-0.2,0.3-0.5,0.3-0.9c0-0.3-0.1-0.6-0.3-0.8c-0.2-0.2-0.5-0.3-1-0.3c-0.2,0-0.4,0-0.6,0C339,59.4,338.9,59.4,338.8,59.4z
		 M340,63.5h-1.2v2.9c0.3,0,0.5,0,0.9,0c0.3,0,0.6,0,0.9-0.1s0.5-0.2,0.7-0.4c0.2-0.2,0.3-0.5,0.3-1c0-0.4-0.1-0.7-0.4-1
		C340.9,63.6,340.5,63.5,340,63.5z"/>
	<path d="M346.6,67.2c-1.1-0.9-1.6-2.3-1.6-4.4c0-0.9,0.1-1.6,0.3-2.3c0.2-0.7,0.5-1.2,0.9-1.7c0.4-0.4,0.8-0.8,1.4-1
		c0.5-0.2,1.2-0.3,1.9-0.3s1.3,0.1,1.9,0.3c0.6,0.2,1,0.6,1.4,1c0.4,0.5,0.7,1,0.9,1.7c0.2,0.7,0.3,1.4,0.3,2.3
		c0,0.9-0.1,1.6-0.3,2.3c-0.2,0.7-0.5,1.2-0.9,1.7c-0.4,0.4-0.9,0.8-1.4,1c-0.6,0.2-1.2,0.3-1.9,0.3
		C348.3,68.2,347.3,67.9,346.6,67.2z M347.8,65.2c0.3,0.8,0.8,1.2,1.6,1.2c0.4,0,0.7-0.1,1-0.3c0.3-0.2,0.5-0.5,0.6-0.8
		c0.1-0.3,0.2-0.7,0.3-1.1c0-0.4,0.1-0.8,0.1-1.1c0-0.3,0-0.7,0-1.2c0-0.4-0.1-0.8-0.2-1.2s-0.3-0.7-0.6-0.9
		c-0.3-0.3-0.6-0.4-1.1-0.4c-0.5,0-0.8,0.1-1.1,0.4c-0.3,0.2-0.4,0.5-0.6,0.9c-0.1,0.4-0.2,0.7-0.2,1.1c0,0.4,0,0.8,0,1.1
		c0,0.5,0,0.9,0.1,1.2C347.6,64.4,347.6,64.8,347.8,65.2z"/>
	<path d="M357.8,65.8c-0.3,0-0.5,0-0.6,0l-0.6,2.2c-0.2,0.1-0.6,0.1-1,0.1c-0.5,0-0.9-0.1-1.2-0.2l-0.1-0.1l3.3-10
		c0.4-0.1,0.8-0.1,1.4-0.1c0.6,0,1.1,0,1.4,0.1l3.2,10c-0.3,0.2-0.7,0.3-1.2,0.3c-0.5,0-0.9-0.1-1.1-0.3c-0.2-0.2-0.4-0.5-0.5-1
		l-0.3-1c-0.1,0-0.3,0-0.6,0H357.8z M359,56.6l-0.7-0.3c-0.1,0-0.1-0.1-0.2-0.1c-0.1,0-0.2,0-0.2,0c-0.1,0-0.2,0-0.3,0.1
		s-0.2,0.1-0.3,0.3l-0.1,0.2c-0.2,0-0.5-0.1-0.7-0.2c-0.2-0.1-0.4-0.3-0.5-0.5l0.1-0.3c0.4-0.9,1-1.3,1.9-1.3c0.3,0,0.7,0.1,1,0.3
		l0.7,0.3c0.1,0,0.1,0.1,0.2,0.1c0.1,0,0.1,0,0.2,0c0.1,0,0.2,0,0.3-0.1s0.2-0.1,0.3-0.3l0.1-0.2c0.2,0,0.5,0.1,0.7,0.2
		c0.2,0.1,0.4,0.3,0.5,0.5l-0.1,0.3c-0.4,0.9-1,1.3-1.9,1.3C359.7,56.9,359.4,56.8,359,56.6z M357.8,63.9l0.6,0h1.1c0,0,0.1,0,0.3,0
		c0.1,0,0.2,0,0.3,0l-0.3-0.9c-0.2-0.8-0.5-1.9-0.8-3.1h-0.1c-0.1,0.4-0.3,1.4-0.7,2.8L357.8,63.9z"/>
	<path d="M365.9,67.2c-1.1-0.9-1.6-2.3-1.6-4.4c0-0.9,0.1-1.6,0.3-2.3c0.2-0.7,0.5-1.2,0.9-1.7c0.4-0.4,0.8-0.8,1.4-1
		c0.5-0.2,1.2-0.3,1.9-0.3s1.3,0.1,1.9,0.3c0.6,0.2,1,0.6,1.4,1c0.4,0.5,0.7,1,0.9,1.7c0.2,0.7,0.3,1.4,0.3,2.3
		c0,0.9-0.1,1.6-0.3,2.3c-0.2,0.7-0.5,1.2-0.9,1.7c-0.4,0.4-0.9,0.8-1.4,1c-0.6,0.2-1.2,0.3-1.9,0.3
		C367.6,68.2,366.6,67.9,365.9,67.2z M367.1,65.2c0.3,0.8,0.8,1.2,1.6,1.2c0.4,0,0.7-0.1,1-0.3c0.3-0.2,0.5-0.5,0.6-0.8
		c0.1-0.3,0.2-0.7,0.3-1.1c0-0.4,0.1-0.8,0.1-1.1c0-0.3,0-0.7,0-1.2c0-0.4-0.1-0.8-0.2-1.2s-0.3-0.7-0.6-0.9
		c-0.3-0.3-0.6-0.4-1.1-0.4c-0.5,0-0.8,0.1-1.1,0.4c-0.3,0.2-0.4,0.5-0.6,0.9c-0.1,0.4-0.2,0.7-0.2,1.1c0,0.4,0,0.8,0,1.1
		c0,0.5,0,0.9,0.1,1.2C366.9,64.4,367,64.8,367.1,65.2z"/>
	<path d="M384.7,67.3c-0.3,0.3-0.7,0.4-1.3,0.6c-0.5,0.1-1.1,0.2-1.7,0.2c-0.3,0-0.8,0-1.3,0s-1.3,0-2.2,0l-0.1-0.1v-10l0.1-0.1
		c0.6,0,1.2,0,1.8,0c0.6,0,1.3,0,2,0c0.8,0,1.6,0.1,2.1,0.4c0.6,0.3,1,0.6,1.4,1.1s0.6,1,0.7,1.6c0.1,0.6,0.2,1.3,0.2,2
		c0,1-0.1,1.9-0.3,2.6C385.8,66.2,385.4,66.8,384.7,67.3z M382,66.2c1.3,0,2-1.1,2-3.3c0-2.2-0.7-3.3-2-3.3c-0.3,0-0.6,0-0.8,0
		c-0.2,0-0.5,0-0.6,0v6.7c0.2,0,0.4,0,0.6,0C381.4,66.2,381.7,66.2,382,66.2z"/>
	<path d="M390.4,65.8c-0.3,0-0.5,0-0.6,0l-0.6,2.2c-0.2,0.1-0.6,0.1-1,0.1c-0.5,0-0.9-0.1-1.2-0.2l-0.1-0.1l3.3-10
		c0.4-0.1,0.8-0.1,1.4-0.1c0.6,0,1.1,0,1.4,0.1l3.2,10c-0.3,0.2-0.7,0.3-1.2,0.3c-0.5,0-0.9-0.1-1.1-0.3c-0.2-0.2-0.4-0.5-0.5-1
		l-0.3-1c-0.1,0-0.3,0-0.6,0H390.4z M390.4,63.9l0.6,0h1.1c0,0,0.1,0,0.3,0c0.1,0,0.2,0,0.3,0l-0.3-0.9c-0.2-0.8-0.5-1.9-0.8-3.1
		h-0.1c-0.1,0.4-0.3,1.4-0.7,2.8L390.4,63.9z"/>
	<path d="M399.8,67.1c0-0.3,0.1-0.7,0.3-1c0.2-0.3,0.4-0.6,0.6-0.8c1.1,0.6,2.1,1,3,1c0.4,0,0.7-0.1,0.9-0.3
		c0.2-0.2,0.3-0.4,0.3-0.7c0-0.5-0.3-0.8-0.9-1.1l-1.8-0.7c-0.7-0.3-1.2-0.7-1.6-1.1s-0.6-1-0.6-1.6c0-0.5,0.1-0.9,0.3-1.3
		c0.2-0.4,0.4-0.7,0.8-1c0.3-0.3,0.7-0.5,1.2-0.6c0.5-0.2,1-0.2,1.5-0.2c1.1,0,2.2,0.3,3.4,0.9c0,0.8-0.3,1.4-0.8,1.8
		c-1-0.5-1.9-0.7-2.7-0.7c-0.4,0-0.7,0.1-0.9,0.3c-0.2,0.2-0.3,0.4-0.3,0.6c0,0.4,0.3,0.7,0.9,0.9l1.8,0.8c0.8,0.3,1.3,0.7,1.7,1.2
		c0.4,0.5,0.6,1.1,0.6,1.7c0,0.5-0.1,0.9-0.3,1.3s-0.4,0.7-0.8,1c-0.3,0.3-0.7,0.5-1.2,0.7s-1.1,0.2-1.7,0.2
		C402.2,68.2,401,67.8,399.8,67.1z"/>
	<path d="M411.4,64.9l0,1.1v0c0.5,0,0.8,0,1.1,0h3.5c0,0.4,0,0.7,0,0.9c-0.1,0.8-0.6,1.1-1.5,1.1h-4c-0.4,0-0.8-0.1-1-0.4
		c-0.2-0.2-0.4-0.6-0.4-1v-8.7l0.1-0.1h6.4c0.1,0.3,0.1,0.6,0.1,0.9c0,0.3-0.1,0.7-0.2,1.1h-4.1l0,1.1v1c0.3,0,0.6,0,1,0h2.3
		c0.1,0.3,0.1,0.6,0.1,1s0,0.7-0.1,1h-3.3V64.9z"/>
	<path d="M424.9,60.9c0,0.3,0,0.6-0.1,0.9c-0.1,0.3-0.2,0.6-0.4,0.8s-0.4,0.4-0.6,0.6c-0.2,0.2-0.5,0.3-0.7,0.4
		c0.5,0.2,0.9,0.6,1.1,1.4l0.4,1.3c0.2,0.5,0.4,0.9,0.7,1.1c-0.1,0.2-0.4,0.4-0.7,0.5c-0.3,0.1-0.6,0.2-1,0.2s-0.6-0.1-0.8-0.3
		c-0.2-0.2-0.4-0.6-0.6-1.1l-0.5-1.6c-0.1-0.3-0.3-0.5-0.4-0.7c-0.2-0.2-0.5-0.2-0.8-0.2H420V68c-0.3,0.1-0.7,0.1-1.2,0.1
		s-0.9,0-1.2-0.1V57.8l0.1-0.1c0.9,0,1.6,0,2.2,0s1.1,0,1.4,0c0.5,0,1,0.1,1.5,0.2c0.4,0.1,0.8,0.3,1.1,0.6s0.6,0.6,0.7,1
		S424.9,60.4,424.9,60.9z M420,59.4v2.9c0.4,0,0.8,0,1.1,0s0.6-0.1,0.8-0.2c0.2-0.1,0.3-0.3,0.4-0.4c0.1-0.2,0.1-0.5,0.1-0.8
		c0-1-0.5-1.5-1.4-1.5c-0.2,0-0.4,0-0.6,0C420.3,59.5,420.1,59.5,420,59.4z"/>
	<path d="M434.1,60.9c0,0.3,0,0.6-0.1,0.9c-0.1,0.3-0.2,0.6-0.4,0.8s-0.4,0.4-0.6,0.6c-0.2,0.2-0.5,0.3-0.7,0.4
		c0.5,0.2,0.9,0.6,1.1,1.4l0.4,1.3c0.2,0.5,0.4,0.9,0.7,1.1c-0.1,0.2-0.4,0.4-0.7,0.5c-0.3,0.1-0.6,0.2-1,0.2s-0.6-0.1-0.8-0.3
		c-0.2-0.2-0.4-0.6-0.6-1.1l-0.5-1.6c-0.1-0.3-0.3-0.5-0.4-0.7c-0.2-0.2-0.5-0.2-0.8-0.2h-0.6V68c-0.3,0.1-0.7,0.1-1.2,0.1
		s-0.9,0-1.2-0.1V57.8l0.1-0.1c0.9,0,1.6,0,2.2,0s1.1,0,1.4,0c0.5,0,1,0.1,1.5,0.2c0.4,0.1,0.8,0.3,1.1,0.6s0.6,0.6,0.7,1
		S434.1,60.4,434.1,60.9z M429.1,59.4v2.9c0.4,0,0.8,0,1.1,0s0.6-0.1,0.8-0.2c0.2-0.1,0.3-0.3,0.4-0.4c0.1-0.2,0.1-0.5,0.1-0.8
		c0-1-0.5-1.5-1.4-1.5c-0.2,0-0.4,0-0.6,0C429.4,59.5,429.3,59.5,429.1,59.4z"/>
	<path d="M438.4,65.8c-0.3,0-0.5,0-0.6,0l-0.6,2.2c-0.2,0.1-0.6,0.1-1,0.1c-0.5,0-0.9-0.1-1.2-0.2l-0.1-0.1l3.3-10
		c0.4-0.1,0.8-0.1,1.4-0.1c0.6,0,1.1,0,1.4,0.1l3.2,10c-0.3,0.2-0.7,0.3-1.2,0.3c-0.5,0-0.9-0.1-1.1-0.3c-0.2-0.2-0.4-0.5-0.5-1
		l-0.3-1c-0.1,0-0.3,0-0.6,0H438.4z M438.4,63.9l0.6,0h1.1c0,0,0.1,0,0.3,0c0.1,0,0.2,0,0.3,0l-0.3-0.9c-0.2-0.8-0.5-1.9-0.8-3.1
		h-0.1c-0.1,0.4-0.3,1.4-0.7,2.8L438.4,63.9z"/>
	<path d="M451.1,64.9l0,1.1v0c0.5,0,0.8,0,1.1,0h3.5c0,0.4,0,0.7,0,0.9c-0.1,0.8-0.6,1.1-1.5,1.1h-4c-0.4,0-0.8-0.1-1-0.4
		c-0.2-0.2-0.4-0.6-0.4-1v-8.7l0.1-0.1h6.4c0.1,0.3,0.1,0.6,0.1,0.9c0,0.3-0.1,0.7-0.2,1.1h-4.1l0,1.1v1c0.3,0,0.6,0,1,0h2.3
		c0.1,0.3,0.1,0.6,0.1,1s0,0.7-0.1,1h-3.3V64.9z"/>
	<path d="M467.9,60.9c0,0.3,0,0.6-0.1,0.9c-0.1,0.3-0.2,0.6-0.4,0.8s-0.4,0.4-0.6,0.6c-0.2,0.2-0.5,0.3-0.7,0.4
		c0.5,0.2,0.9,0.6,1.1,1.4l0.4,1.3c0.2,0.5,0.4,0.9,0.7,1.1c-0.1,0.2-0.4,0.4-0.7,0.5c-0.3,0.1-0.6,0.2-1,0.2s-0.6-0.1-0.8-0.3
		c-0.2-0.2-0.4-0.6-0.6-1.1l-0.5-1.6c-0.1-0.3-0.3-0.5-0.4-0.7c-0.2-0.2-0.5-0.2-0.8-0.2H463V68c-0.3,0.1-0.7,0.1-1.2,0.1
		s-0.9,0-1.2-0.1V57.8l0.1-0.1c0.9,0,1.6,0,2.2,0s1.1,0,1.4,0c0.5,0,1,0.1,1.5,0.2c0.4,0.1,0.8,0.3,1.1,0.6s0.6,0.6,0.7,1
		S467.9,60.4,467.9,60.9z M463,59.4v2.9c0.4,0,0.8,0,1.1,0s0.6-0.1,0.8-0.2c0.2-0.1,0.3-0.3,0.4-0.4c0.1-0.2,0.1-0.5,0.1-0.8
		c0-1-0.5-1.5-1.4-1.5c-0.2,0-0.4,0-0.6,0C463.3,59.5,463.1,59.5,463,59.4z"/>
	<path d="M472.1,64.9l0,1.1v0c0.5,0,0.8,0,1.1,0h3.5c0,0.4,0,0.7,0,0.9c-0.1,0.8-0.6,1.1-1.5,1.1h-4c-0.4,0-0.8-0.1-1-0.4
		c-0.2-0.2-0.4-0.6-0.4-1v-8.7l0.1-0.1h6.4c0.1,0.3,0.1,0.6,0.1,0.9c0,0.3-0.1,0.7-0.2,1.1h-4.1l0,1.1v1c0.3,0,0.6,0,1,0h2.3
		c0.1,0.3,0.1,0.6,0.1,1s0,0.7-0.1,1h-3.3V64.9z"/>
	<path d="M482.1,62.2l2.3,0c1.1,0,1.6,0.5,1.6,1.5v3.9c-1.3,0.4-2.6,0.6-4,0.6c-0.7,0-1.4-0.1-1.9-0.4c-0.6-0.2-1-0.6-1.4-1
		s-0.7-1-0.8-1.6c-0.2-0.7-0.3-1.4-0.3-2.2c0-0.9,0.1-1.7,0.4-2.4c0.3-0.7,0.6-1.2,1.1-1.7c0.4-0.4,1-0.8,1.5-1
		c0.6-0.2,1.2-0.3,1.8-0.3c1.3,0,2.5,0.4,3.6,1.1c0,0.2,0,0.3-0.1,0.5s-0.1,0.3-0.2,0.5s-0.2,0.3-0.3,0.4c-0.1,0.1-0.3,0.2-0.4,0.3
		c-0.8-0.5-1.7-0.8-2.5-0.8c-1.6,0-2.4,1.1-2.4,3.4c0,2.3,0.8,3.4,2.5,3.4c0.2,0,0.5,0,0.7,0c0.2,0,0.4,0,0.6-0.1v-1
		c0-0.2,0-0.4,0-0.6c0-0.2,0-0.3,0-0.4h-0.7c-0.4,0-0.7-0.1-0.9-0.2s-0.2-0.4-0.2-0.8C481.9,62.8,482,62.5,482.1,62.2z"/>
	<path d="M488,68V57.8c0.3-0.1,0.7-0.1,1.2-0.1c0.5,0,0.9,0,1.2,0.1V68c-0.3,0.1-0.7,0.1-1.2,0.1C488.7,68,488.3,68,488,68z"/>
	<path d="M495.1,65.8c-0.3,0-0.5,0-0.6,0l-0.6,2.2c-0.2,0.1-0.6,0.1-1,0.1c-0.5,0-0.9-0.1-1.2-0.2l-0.1-0.1l3.3-10
		c0.4-0.1,0.8-0.1,1.4-0.1c0.6,0,1.1,0,1.4,0.1l3.2,10c-0.3,0.2-0.7,0.3-1.2,0.3c-0.5,0-0.9-0.1-1.1-0.3c-0.2-0.2-0.4-0.5-0.5-1
		l-0.3-1c-0.1,0-0.3,0-0.6,0H495.1z M496.3,56.6l-0.7-0.3c-0.1,0-0.1-0.1-0.2-0.1c-0.1,0-0.2,0-0.2,0c-0.1,0-0.2,0-0.3,0.1
		s-0.2,0.1-0.3,0.3l-0.1,0.2c-0.2,0-0.5-0.1-0.7-0.2c-0.2-0.1-0.4-0.3-0.5-0.5l0.1-0.3c0.4-0.9,1-1.3,1.9-1.3c0.3,0,0.7,0.1,1,0.3
		L497,55c0.1,0,0.1,0.1,0.2,0.1c0.1,0,0.1,0,0.2,0c0.1,0,0.2,0,0.3-0.1s0.2-0.1,0.3-0.3l0.1-0.2c0.2,0,0.5,0.1,0.7,0.2
		c0.2,0.1,0.4,0.3,0.5,0.5l-0.1,0.3c-0.4,0.9-1,1.3-1.9,1.3C497,56.9,496.7,56.8,496.3,56.6z M495.1,63.9l0.6,0h1.1c0,0,0.1,0,0.3,0
		c0.1,0,0.2,0,0.3,0l-0.3-0.9c-0.2-0.8-0.5-1.9-0.8-3.1h-0.1c-0.1,0.4-0.3,1.4-0.7,2.8L495.1,63.9z"/>
	<path d="M503.2,67.2c-1.1-0.9-1.6-2.3-1.6-4.4c0-0.9,0.1-1.6,0.3-2.3c0.2-0.7,0.5-1.2,0.9-1.7c0.4-0.4,0.8-0.8,1.4-1
		c0.5-0.2,1.2-0.3,1.9-0.3s1.3,0.1,1.9,0.3c0.6,0.2,1,0.6,1.4,1c0.4,0.5,0.7,1,0.9,1.7c0.2,0.7,0.3,1.4,0.3,2.3
		c0,0.9-0.1,1.6-0.3,2.3c-0.2,0.7-0.5,1.2-0.9,1.7c-0.4,0.4-0.9,0.8-1.4,1c-0.6,0.2-1.2,0.3-1.9,0.3
		C504.9,68.2,503.9,67.9,503.2,67.2z M504.4,65.2c0.3,0.8,0.8,1.2,1.6,1.2c0.4,0,0.7-0.1,1-0.3c0.3-0.2,0.5-0.5,0.6-0.8
		c0.1-0.3,0.2-0.7,0.3-1.1c0-0.4,0.1-0.8,0.1-1.1c0-0.3,0-0.7,0-1.2c0-0.4-0.1-0.8-0.2-1.2s-0.3-0.7-0.6-0.9
		c-0.3-0.3-0.6-0.4-1.1-0.4c-0.5,0-0.8,0.1-1.1,0.4c-0.3,0.2-0.4,0.5-0.6,0.9c-0.1,0.4-0.2,0.7-0.2,1.1c0,0.4,0,0.8,0,1.1
		c0,0.5,0,0.9,0.1,1.2C504.2,64.4,504.3,64.8,504.4,65.2z"/>
</g>
</svg>
