<?xml version="1.0" encoding="utf-8"?>
<!-- Generator: Adobe Illustrator 23.0.1, SVG Export Plug-In . SVG Version: 6.00 Build 0)  -->
<svg version="1.1" id="Layer_1" xmlns="http://www.w3.org/2000/svg" xmlns:xlink="http://www.w3.org/1999/xlink" x="0px" y="0px"
	 viewBox="0 0 502 77.1" style="enable-background:new 0 0 502 77.1;" xml:space="preserve">
<style type="text/css">
	.st0{fill:#FF0000;}
	.st1{fill:#EAE9E9;}
	.st2{fill:#1E232B;}
</style>
<title>logotvAsset 2</title>
<rect x="46.5" y="0.9" class="st0" width="35.1" height="52.6"/>
<path d="M116.1,53.5H81.6V0.9h27.2c2,0.4,3.9,1.4,5.3,3c1.1,1.1,1.8,2.4,2,4.1C116.1,8,116.1,53.5,116.1,53.5z"/>
<path class="st1" d="M46.5,53.5H12V9c0-2,0.7-4.1,2.3-5.4c1.3-1.6,3.1-2.4,5.3-2.7h27L46.5,53.5L46.5,53.5z"/>
<path class="st2" d="M12,53.6v15c0,4.7,3.9,8.7,8.7,8.7l86.7-0.4c4.7,0,8.7-3.9,8.7-8.7v-15L12,53.6z"/>
<g>
	<path d="M137.6,4h23.7v7h-8v41.9h-7.7V11h-8C137.6,11,137.6,4,137.6,4z"/>
	<path d="M176.3,43.9L182.2,4h7.1l-7.5,48.9h-11.5L162.7,4h7.8L176.3,43.9z"/>
	<path d="M201.4,4h23.7v7h-8v41.9h-7.7V11h-8V4z"/>
	<path d="M250.7,52.9h-7.8l-1.3-8.9h-9.4l-1.3,8.9h-7.1L231.6,4h11.2L250.7,52.9z M233.1,37.4h7.4l-3.7-24.7L233.1,37.4z"/>
	<path d="M265.8,4c4,0,6.9,0.9,8.7,2.8s2.7,4.7,2.7,8.5V17c0,2.5-0.4,4.6-1.2,6.2s-2,2.8-3.8,3.6c2.1,0.8,3.6,2.1,4.4,3.9
		c0.9,1.8,1.3,4,1.3,6.6v4c0,3.8-1,6.6-2.9,8.6c-2,2-4.9,3-8.7,3h-12.1V4H265.8z M261.9,11v12.9h3c1.4,0,2.6-0.4,3.4-1.1
		s1.2-2.1,1.2-4.1V16c0-1.8-0.3-3-0.9-3.8c-0.6-0.8-1.6-1.2-3-1.2H261.9z M261.9,30.9v15h4.4c1.3,0,2.3-0.3,3-1s1-2,1-3.8v-4.3
		c0-2.3-0.4-3.8-1.2-4.7c-0.8-0.8-2-1.3-3.8-1.3L261.9,30.9L261.9,30.9z"/>
	<path d="M282,15.7c0-4,1-7,3-9.1s4.9-3.2,8.7-3.2c3.8,0,6.7,1.1,8.7,3.2s3,5.2,3,9.1v25.4c0,4-1,7-3,9.1s-4.9,3.2-8.7,3.2
		c-3.8,0-6.7-1.1-8.7-3.2c-2-2.1-3-5.2-3-9.1V15.7z M289.7,41.6c0,1.8,0.4,3,1.1,3.7s1.7,1.1,2.9,1.1c1.2,0,2.2-0.4,2.9-1.1
		c0.7-0.7,1.1-2,1.1-3.7V15.2c0-1.8-0.4-3-1.1-3.7s-1.7-1.1-2.9-1.1c-1.2,0-2.2,0.4-2.9,1.1c-0.7,0.7-1.1,2-1.1,3.7V41.6z"/>
	<path d="M335.1,52.9h-7.8L326,44h-9.4l-1.3,8.9h-7.1L316,4h11.2L335.1,52.9z M317.5,37.4h7.4l-3.7-24.7L317.5,37.4z"/>
	<path d="M345.5,17.5v35.4h-6.9V4h9.6l7.9,29.3V4h6.8v48.9H355L345.5,17.5z"/>
	<path d="M376.1,24.6h10.5v7h-10.5v14.3h13.3v7h-21V4h21v7h-13.3V24.6z"/>
	<path d="M401,17.5v35.4h-6.9V4h9.6l7.9,29.3V4h6.8v48.9h-7.9L401,17.5z"/>
	<path d="M423,15.7c0-4,0.9-7,2.8-9.1s4.7-3.2,8.5-3.2s6.6,1.1,8.5,3.2s2.8,5.2,2.8,9.1v1.5h-7.3v-2c0-1.8-0.3-3-1-3.7
		s-1.6-1.1-2.8-1.1c-1.2,0-2.2,0.4-2.8,1.1c-0.7,0.7-1,2-1,3.7s0.4,3.2,1.1,4.4c0.7,1.3,1.7,2.5,2.8,3.6c1.1,1.1,2.3,2.3,3.6,3.4
		c1.3,1.1,2.5,2.4,3.6,3.7c1.1,1.4,2,2.9,2.8,4.6c0.7,1.7,1.1,3.7,1.1,6.1c0,4-1,7-2.9,9.1s-4.8,3.2-8.6,3.2s-6.6-1.1-8.6-3.2
		c-1.9-2.1-2.9-5.2-2.9-9.1v-3h7.3v3.5c0,1.8,0.4,3,1.1,3.7s1.7,1,2.9,1s2.2-0.3,2.9-1c0.7-0.7,1.1-1.9,1.1-3.7
		c0-1.7-0.4-3.2-1.1-4.4c-0.7-1.3-1.7-2.5-2.8-3.6c-1.1-1.1-2.3-2.3-3.6-3.4c-1.3-1.1-2.5-2.4-3.6-3.7c-1.1-1.4-2-2.9-2.8-4.6
		C423.4,20.1,423,18.1,423,15.7z"/>
	<path d="M457.8,24.6h10.5v7h-10.5v14.3H471v7h-21V4h21v7h-13.3L457.8,24.6L457.8,24.6z"/>
</g>
<g>
	<path d="M145.4,72.6l-0.8,3.5h-1l3.5-16h1.5l3.6,16h-1l-0.8-3.5H145.4z M145.6,71.7h4.6l-2.3-10.3L145.6,71.7z"/>
	<path d="M160.7,60.2c1.2,0,2.1,0.4,2.6,1.1c0.5,0.7,0.8,1.6,0.8,2.8v1.7c0,1.3-0.3,2.2-0.9,2.8c-0.6,0.6-1.5,0.9-2.8,0.9h-2v6.6h-1
		v-16h3.3V60.2z M160.4,68.6c0.9,0,1.6-0.2,2-0.6s0.6-1.1,0.6-2.1V64c0-0.9-0.2-1.6-0.5-2.1s-1-0.8-1.9-0.8h-2.3v7.5
		C158.3,68.6,160.4,68.6,160.4,68.6z"/>
	<path d="M169,60.2c1.2,0,2.1,0.3,2.6,1c0.5,0.6,0.8,1.5,0.8,2.6v1.4c0,1.9-0.8,3-2.3,3.3c0.8,0.2,1.4,0.6,1.8,1.1
		c0.4,0.6,0.5,1.3,0.5,2.1v2.5c0,0.3,0,0.7,0.1,1c0,0.3,0.2,0.6,0.3,0.9h-1.1c-0.1-0.2-0.2-0.5-0.3-0.8c0-0.3-0.1-0.7-0.1-1.1v-2.5
		c0-0.5-0.1-1-0.2-1.3s-0.3-0.6-0.6-0.8c-0.3-0.2-0.6-0.3-0.9-0.4c-0.4-0.1-0.8-0.1-1.2-0.1h-1.7v7.1h-1v-16
		C165.7,60.2,169,60.2,169,60.2z M168.5,68c0.5,0,0.9,0,1.3-0.1c0.4-0.1,0.7-0.2,0.9-0.4c0.3-0.2,0.4-0.5,0.6-0.8s0.2-0.8,0.2-1.3
		v-1.5c0-0.9-0.2-1.5-0.5-2c-0.4-0.5-1-0.7-1.8-0.7h-2.3V68H168.5z"/>
	<path d="M175.6,60.2v16h-1v-16C174.6,60.2,175.6,60.2,175.6,60.2z"/>
	<path d="M182.7,76.1h-1L178.3,62v14.1h-0.9v-16h1.5l3.3,14.1l3.3-14.1h1.5v16h-1V62L182.7,76.1z"/>
	<path d="M194.3,67.6v1h-4.4v6.7h5.2v1h-6.3v-16h6.3v1h-5.2v6.4L194.3,67.6L194.3,67.6z"/>
	<path d="M197.9,60.2v16h-1v-16C196.9,60.2,197.9,60.2,197.9,60.2z"/>
	<path d="M203.1,60.2c1.2,0,2.1,0.3,2.6,1c0.5,0.6,0.8,1.5,0.8,2.6v1.4c0,1.9-0.8,3-2.3,3.3c0.8,0.2,1.4,0.6,1.8,1.1
		c0.4,0.6,0.5,1.3,0.5,2.1v2.5c0,0.3,0,0.7,0.1,1c0,0.3,0.2,0.6,0.3,0.9h-1.1c-0.1-0.2-0.2-0.5-0.3-0.8c0-0.3-0.1-0.7-0.1-1.1v-2.5
		c0-0.5-0.1-1-0.2-1.3s-0.3-0.6-0.6-0.8c-0.3-0.2-0.6-0.3-0.9-0.4c-0.4-0.1-0.8-0.1-1.2-0.1h-1.7v7.1h-1v-16
		C199.8,60.2,203.1,60.2,203.1,60.2z M202.5,68c0.5,0,0.9,0,1.3-0.1c0.4-0.1,0.7-0.2,0.9-0.4c0.3-0.2,0.4-0.5,0.6-0.8
		s0.2-0.8,0.2-1.3v-1.5c0-0.9-0.2-1.5-0.5-2c-0.4-0.5-1-0.7-1.8-0.7h-2.3V68H202.5z"/>
	<path d="M210.1,72.6l-0.8,3.5h-1l3.5-16h1.5l3.6,16h-1l-0.8-3.5H210.1z M210.2,71.7h4.6l-2.3-10.3L210.2,71.7z"/>
	<path d="M224.8,76.1v-15h-3.3v-1h7.5v1h-3.2v15H224.8z"/>
	<path d="M231.3,60.2l3.2,14.7l3.2-14.7h1l-3.5,16h-1.5l-3.5-16C230.2,60.2,231.3,60.2,231.3,60.2z"/>
	<path d="M243.8,64.1c0-0.6,0.1-1.1,0.2-1.6c0.1-0.5,0.3-0.9,0.6-1.3c0.3-0.4,0.6-0.6,1.1-0.8c0.4-0.2,1-0.3,1.6-0.3
		s1.1,0.1,1.6,0.3s0.8,0.5,1.1,0.8c0.3,0.4,0.5,0.8,0.6,1.3s0.2,1,0.2,1.6v8.2c0,0.6-0.1,1.1-0.2,1.6c-0.1,0.5-0.3,0.9-0.6,1.3
		s-0.7,0.6-1.1,0.8s-1,0.3-1.6,0.3s-1.1-0.1-1.6-0.3c-0.4-0.2-0.8-0.5-1.1-0.8c-0.3-0.4-0.5-0.8-0.6-1.3s-0.2-1-0.2-1.6V64.1z
		 M244.8,72.3c0,0.9,0.2,1.6,0.6,2.2c0.4,0.6,1,0.9,1.9,0.9s1.5-0.3,1.9-0.9s0.6-1.3,0.6-2.2V64c0-0.9-0.2-1.6-0.6-2.2
		c-0.4-0.6-1-0.9-1.9-0.9s-1.5,0.3-1.9,0.9c-0.4,0.6-0.6,1.3-0.6,2.2V72.3z"/>
	<path d="M253.5,76.1h-1v-16h1.4l4.8,13.5V60.2h1v16h-1.2l-5-14.2V76.1z"/>
	<path d="M261.4,76.1v-16h1v15h5v1H261.4z"/>
	<path d="M270.1,60.2v16h-1v-16C269.1,60.2,270.1,60.2,270.1,60.2z"/>
	<path d="M272.9,76.1h-1v-16h1.4l4.8,13.5V60.2h1v16h-1.2l-5-14.2V76.1z"/>
	<path d="M286.3,67.6v1h-4.4v6.7h5.2v1h-6.3v-16h6.3v1h-5.2v6.4L286.3,67.6L286.3,67.6z"/>
	<path d="M295.9,60.2c0.6,0,1.1,0.1,1.6,0.3c0.4,0.2,0.8,0.5,1.1,0.8c0.3,0.3,0.5,0.8,0.6,1.3s0.2,1,0.2,1.6v8
		c0,0.6-0.1,1.1-0.2,1.6s-0.4,0.9-0.6,1.3c-0.3,0.3-0.7,0.6-1.1,0.8c-0.4,0.2-1,0.3-1.6,0.3h-3.5v-16
		C292.4,60.2,295.9,60.2,295.9,60.2z M295.9,75.2c0.9,0,1.5-0.3,1.9-0.8s0.6-1.3,0.6-2.1v-8.1c0-0.9-0.2-1.6-0.6-2.1s-1-0.8-1.9-0.8
		h-2.4v14h2.4V75.2z"/>
	<path d="M306.6,67.6v1h-4.4v6.7h5.2v1h-6.3v-16h6.3v1h-5.2v6.4L306.6,67.6L306.6,67.6z"/>
	<path d="M315.4,76.1v-15h-3.3v-1h7.5v1h-3.2v15H315.4z"/>
	<path d="M321.8,72.6l-0.8,3.5h-1l3.5-16h1.5l3.6,16h-1l-0.8-3.5H321.8z M321.9,71.7h4.6l-2.3-10.3L321.9,71.7z"/>
	<path d="M333.5,60.2c1.2,0,2,0.3,2.5,0.9s0.7,1.4,0.7,2.5v0.9c0,0.9-0.1,1.6-0.4,2.1s-0.8,0.9-1.7,1c0.9,0.2,1.5,0.6,1.8,1.2
		c0.4,0.6,0.5,1.4,0.5,2.3v1.4c0,1.2-0.3,2.1-0.8,2.7c-0.5,0.7-1.4,1-2.7,1H330v-16C330,60.2,333.5,60.2,333.5,60.2z M333,67.2
		c0.5,0,0.9,0,1.2-0.1s0.6-0.2,0.9-0.4c0.2-0.2,0.4-0.4,0.5-0.8c0.1-0.3,0.2-0.7,0.2-1.2v-1c0-0.8-0.2-1.5-0.5-1.9s-0.9-0.6-1.8-0.6
		h-2.3v6.1L333,67.2L333,67.2z M333.6,75.2c0.9,0,1.5-0.2,1.9-0.7s0.6-1.2,0.6-2.1V71c0-1-0.2-1.8-0.7-2.2c-0.5-0.4-1.2-0.6-2.1-0.6
		h-2v7C331.3,75.2,333.6,75.2,333.6,75.2z"/>
	<path d="M338.7,64.1c0-0.6,0.1-1.1,0.2-1.6s0.3-0.9,0.6-1.3c0.3-0.4,0.6-0.6,1.1-0.8s1-0.3,1.6-0.3s1.1,0.1,1.6,0.3
		s0.8,0.5,1.1,0.8c0.3,0.4,0.5,0.8,0.6,1.3s0.2,1,0.2,1.6v8.2c0,0.6-0.1,1.1-0.2,1.6s-0.3,0.9-0.6,1.3c-0.3,0.4-0.7,0.6-1.1,0.8
		s-1,0.3-1.6,0.3s-1.1-0.1-1.6-0.3s-0.8-0.5-1.1-0.8c-0.3-0.4-0.5-0.8-0.6-1.3s-0.2-1-0.2-1.6V64.1z M339.8,72.3
		c0,0.9,0.2,1.6,0.6,2.2s1,0.9,1.9,0.9s1.5-0.3,1.9-0.9s0.6-1.3,0.6-2.2V64c0-0.9-0.2-1.6-0.6-2.2c-0.4-0.6-1-0.9-1.9-0.9
		s-1.5,0.3-1.9,0.9c-0.4,0.6-0.6,1.3-0.6,2.2V72.3z"/>
	<path d="M349,72.6l-0.8,3.5h-1l3.5-16h1.5l3.6,16h-1l-0.8-3.5H349z M350.4,57.6c0.2,0,0.4,0,0.6,0.1s0.4,0.2,0.5,0.3
		c0.2,0.1,0.3,0.2,0.5,0.3s0.3,0.1,0.5,0.1s0.4-0.1,0.5-0.2c0.1-0.1,0.2-0.3,0.4-0.5l0.6,0.4c-0.2,0.3-0.3,0.6-0.5,0.8
		s-0.5,0.3-0.8,0.3c-0.2,0-0.4,0-0.6-0.1s-0.3-0.2-0.5-0.3s-0.3-0.2-0.5-0.3s-0.3-0.1-0.5-0.1c-0.4,0-0.7,0.2-1,0.7l-0.6-0.4
		C349.3,58,349.8,57.6,350.4,57.6z M349.1,71.7h4.6l-2.3-10.3L349.1,71.7z"/>
	<path d="M357.3,64.1c0-0.6,0.1-1.1,0.2-1.6s0.3-0.9,0.6-1.3c0.3-0.4,0.6-0.6,1.1-0.8s1-0.3,1.6-0.3s1.1,0.1,1.6,0.3
		s0.8,0.5,1.1,0.8c0.3,0.4,0.5,0.8,0.6,1.3s0.2,1,0.2,1.6v8.2c0,0.6-0.1,1.1-0.2,1.6s-0.3,0.9-0.6,1.3c-0.3,0.4-0.7,0.6-1.1,0.8
		s-1,0.3-1.6,0.3s-1.1-0.1-1.6-0.3s-0.8-0.5-1.1-0.8c-0.3-0.4-0.5-0.8-0.6-1.3s-0.2-1-0.2-1.6V64.1z M358.4,72.3
		c0,0.9,0.2,1.6,0.6,2.2s1,0.9,1.9,0.9s1.5-0.3,1.9-0.9s0.6-1.3,0.6-2.2V64c0-0.9-0.2-1.6-0.6-2.2c-0.4-0.6-1-0.9-1.9-0.9
		s-1.5,0.3-1.9,0.9c-0.4,0.6-0.6,1.3-0.6,2.2V72.3z"/>
	<path d="M373.1,60.2c0.6,0,1.1,0.1,1.6,0.3c0.4,0.2,0.8,0.5,1.1,0.8c0.3,0.3,0.5,0.8,0.6,1.3s0.2,1,0.2,1.6v8
		c0,0.6-0.1,1.1-0.2,1.6s-0.4,0.9-0.6,1.3c-0.3,0.3-0.7,0.6-1.1,0.8c-0.4,0.2-1,0.3-1.6,0.3h-3.5v-16
		C369.6,60.2,373.1,60.2,373.1,60.2z M373.1,75.2c0.9,0,1.5-0.3,1.9-0.8s0.6-1.3,0.6-2.1v-8.1c0-0.9-0.2-1.6-0.6-2.1s-1-0.8-1.9-0.8
		h-2.4v14h2.4V75.2z"/>
	<path d="M379.9,72.6l-0.8,3.5h-1l3.5-16h1.5l3.6,16h-1l-0.8-3.5H379.9z M380,71.7h4.6l-2.3-10.3L380,71.7z"/>
	<path d="M395.1,60c0.6,0,1.1,0.1,1.5,0.3s0.8,0.5,1,0.8c0.3,0.4,0.5,0.8,0.6,1.3s0.2,1,0.2,1.6v0.3h-1V64c0-0.4,0-0.8-0.1-1.2
		c-0.1-0.4-0.2-0.7-0.4-0.9c-0.2-0.3-0.4-0.5-0.7-0.6c-0.3-0.2-0.7-0.2-1.1-0.2c-0.9,0-1.5,0.3-1.8,0.8c-0.4,0.6-0.5,1.3-0.5,2.1
		c0,0.7,0.1,1.2,0.4,1.7s0.6,0.9,1.1,1.2c0.4,0.4,0.9,0.7,1.4,1.1c0.5,0.3,1,0.7,1.4,1.1s0.8,0.9,1.1,1.4c0.3,0.5,0.4,1.1,0.4,1.9
		c0,0.6-0.1,1.1-0.2,1.6s-0.3,0.9-0.6,1.3c-0.3,0.4-0.6,0.6-1.1,0.8s-1,0.3-1.6,0.3s-1.1-0.1-1.6-0.3c-0.4-0.2-0.8-0.5-1.1-0.8
		c-0.3-0.4-0.5-0.8-0.6-1.3s-0.2-1-0.2-1.6v-0.8h1v0.9c0,0.9,0.2,1.6,0.5,2.1s1,0.8,1.9,0.8s1.5-0.3,1.9-0.8
		c0.4-0.6,0.5-1.3,0.5-2.1c0-0.6-0.1-1.2-0.4-1.6c-0.3-0.5-0.6-0.9-1.1-1.2c-0.4-0.4-0.9-0.7-1.4-1.1c-0.5-0.3-1-0.7-1.4-1.1
		s-0.8-0.9-1.1-1.4c-0.3-0.5-0.4-1.2-0.4-1.9c0-1.2,0.3-2.2,0.8-2.9C393.1,60.4,393.9,60.1,395.1,60z"/>
	<path d="M405.6,67.6v1h-4.4v6.7h5.2v1h-6.3v-16h6.3v1h-5.2v6.4L405.6,67.6L405.6,67.6z"/>
	<path d="M411.6,60.2c1.2,0,2.1,0.3,2.6,1c0.5,0.6,0.8,1.5,0.8,2.6v1.4c0,1.9-0.8,3-2.3,3.3c0.8,0.2,1.4,0.6,1.8,1.1
		c0.4,0.6,0.5,1.3,0.5,2.1v2.5c0,0.3,0,0.7,0.1,1c0,0.3,0.2,0.6,0.3,0.9h-1.1c-0.1-0.2-0.2-0.5-0.3-0.8c0-0.3-0.1-0.7-0.1-1.1v-2.5
		c0-0.5-0.1-1-0.2-1.3s-0.3-0.6-0.6-0.8s-0.6-0.3-0.9-0.4c-0.4-0.1-0.8-0.1-1.2-0.1h-1.7v7.1h-1v-16
		C408.3,60.2,411.6,60.2,411.6,60.2z M411,68c0.5,0,0.9,0,1.3-0.1s0.7-0.2,0.9-0.4c0.2-0.2,0.4-0.5,0.6-0.8s0.2-0.8,0.2-1.3v-1.5
		c0-0.9-0.2-1.5-0.5-2c-0.4-0.5-1-0.7-1.8-0.7h-2.3V68H411z"/>
	<path d="M420.4,60.2c1.2,0,2.1,0.3,2.6,1c0.5,0.6,0.8,1.5,0.8,2.6v1.4c0,1.9-0.8,3-2.3,3.3c0.8,0.2,1.4,0.6,1.8,1.1
		c0.4,0.6,0.5,1.3,0.5,2.1v2.5c0,0.3,0,0.7,0.1,1c0,0.3,0.2,0.6,0.3,0.9h-1.1c-0.1-0.2-0.2-0.5-0.3-0.8c0-0.3-0.1-0.7-0.1-1.1v-2.5
		c0-0.5-0.1-1-0.2-1.3s-0.3-0.6-0.6-0.8s-0.6-0.3-0.9-0.4c-0.4-0.1-0.8-0.1-1.2-0.1h-1.7v7.1h-1v-16
		C417.1,60.2,420.4,60.2,420.4,60.2z M419.8,68c0.5,0,0.9,0,1.3-0.1s0.7-0.2,0.9-0.4c0.2-0.2,0.4-0.5,0.6-0.8s0.2-0.8,0.2-1.3v-1.5
		c0-0.9-0.2-1.5-0.5-2c-0.4-0.5-1-0.7-1.8-0.7h-2.3V68H419.8z"/>
	<path d="M427.4,72.6l-0.8,3.5h-1l3.5-16h1.5l3.6,16h-1l-0.8-3.5H427.4z M427.5,71.7h4.6l-2.3-10.3L427.5,71.7z"/>
	<path d="M444.7,67.6v1h-4.4v6.7h5.2v1h-6.3v-16h6.3v1h-5.2v6.4L444.7,67.6L444.7,67.6z"/>
	<path d="M454.2,60.2c1.2,0,2.1,0.3,2.6,1c0.5,0.6,0.8,1.5,0.8,2.6v1.4c0,1.9-0.8,3-2.3,3.3c0.8,0.2,1.4,0.6,1.8,1.1
		c0.4,0.6,0.5,1.3,0.5,2.1v2.5c0,0.3,0,0.7,0.1,1c0,0.3,0.2,0.6,0.3,0.9h-1.1c-0.1-0.2-0.2-0.5-0.3-0.8c0-0.3-0.1-0.7-0.1-1.1v-2.5
		c0-0.5-0.1-1-0.2-1.3s-0.3-0.6-0.6-0.8s-0.6-0.3-0.9-0.4c-0.4-0.1-0.8-0.1-1.2-0.1h-1.7v7.1h-1v-16
		C450.9,60.2,454.2,60.2,454.2,60.2z M453.6,68c0.5,0,0.9,0,1.3-0.1s0.7-0.2,0.9-0.4c0.2-0.2,0.4-0.5,0.6-0.8s0.2-0.8,0.2-1.3v-1.5
		c0-0.9-0.2-1.5-0.5-2c-0.4-0.5-1-0.7-1.8-0.7H452V68H453.6z"/>
	<path d="M465,67.6v1h-4.4v6.7h5.2v1h-6.3v-16h6.3v1h-5.2v6.4L465,67.6L465,67.6z"/>
	<path d="M471,60c0.6,0,1.1,0.1,1.6,0.3s0.8,0.5,1.1,0.8c0.3,0.4,0.5,0.8,0.6,1.3s0.2,1,0.2,1.6v1.2h-1V64c0-0.4,0-0.8-0.1-1.2
		c-0.1-0.4-0.2-0.7-0.4-1s-0.4-0.5-0.8-0.6c-0.3-0.2-0.7-0.2-1.1-0.2s-0.8,0.1-1.1,0.2c-0.3,0.2-0.6,0.4-0.8,0.6
		c-0.2,0.3-0.3,0.6-0.4,1c-0.1,0.4-0.1,0.8-0.1,1.2v8.3c0,0.4,0,0.8,0.1,1.2c0.1,0.4,0.2,0.7,0.4,0.9c0.2,0.3,0.4,0.5,0.8,0.6
		c0.3,0.2,0.7,0.2,1.1,0.2s0.8-0.1,1.1-0.2c0.3-0.2,0.6-0.4,0.8-0.6s0.3-0.6,0.4-0.9c0.1-0.4,0.1-0.8,0.1-1.2v-3.4h-2.1v-1h3.1v4.3
		c0,0.6-0.1,1.1-0.2,1.6s-0.3,0.9-0.6,1.3c-0.3,0.4-0.6,0.6-1.1,0.8s-1,0.3-1.6,0.3s-1.1-0.1-1.6-0.3c-0.4-0.2-0.8-0.5-1.1-0.8
		c-0.3-0.4-0.5-0.8-0.6-1.3s-0.2-1-0.2-1.6V64c0-0.6,0.1-1.1,0.2-1.6s0.3-0.9,0.6-1.3c0.3-0.4,0.6-0.6,1.1-0.8
		C469.9,60.1,470.4,60,471,60z"/>
	<path d="M477.2,60.2v16h-1v-16C476.2,60.2,477.2,60.2,477.2,60.2z"/>
	<path d="M480.6,72.6l-0.8,3.5h-1l3.5-16h1.5l3.6,16h-1l-0.8-3.5H480.6z M482,57.6c0.2,0,0.4,0,0.6,0.1s0.4,0.2,0.5,0.3
		c0.2,0.1,0.3,0.2,0.5,0.3s0.3,0.1,0.5,0.1s0.4-0.1,0.5-0.2c0.1-0.1,0.2-0.3,0.4-0.5l0.6,0.4c-0.2,0.3-0.3,0.6-0.5,0.8
		s-0.5,0.3-0.8,0.3c-0.2,0-0.4,0-0.6-0.1s-0.3-0.2-0.5-0.3s-0.3-0.2-0.5-0.3s-0.3-0.1-0.5-0.1c-0.4,0-0.7,0.2-1,0.7l-0.6-0.4
		C480.9,58,481.4,57.6,482,57.6z M480.7,71.7h4.6L483,61.4L480.7,71.7z"/>
	<path d="M488.9,64.1c0-0.6,0.1-1.1,0.2-1.6s0.3-0.9,0.6-1.3c0.3-0.4,0.6-0.6,1.1-0.8s1-0.3,1.6-0.3s1.1,0.1,1.6,0.3
		s0.8,0.5,1.1,0.8c0.3,0.4,0.5,0.8,0.6,1.3s0.2,1,0.2,1.6v8.2c0,0.6-0.1,1.1-0.2,1.6s-0.3,0.9-0.6,1.3c-0.3,0.4-0.7,0.6-1.1,0.8
		s-1,0.3-1.6,0.3s-1.1-0.1-1.6-0.3s-0.8-0.5-1.1-0.8c-0.3-0.4-0.5-0.8-0.6-1.3s-0.2-1-0.2-1.6V64.1z M490,72.3
		c0,0.9,0.2,1.6,0.6,2.2s1,0.9,1.9,0.9s1.5-0.3,1.9-0.9s0.6-1.3,0.6-2.2V64c0-0.9-0.2-1.6-0.6-2.2c-0.4-0.6-1-0.9-1.9-0.9
		s-1.5,0.3-1.9,0.9c-0.4,0.6-0.6,1.3-0.6,2.2V72.3z"/>
</g>
</svg>
