<?xml version="1.0" encoding="utf-8"?>
<!-- Generator: Adobe Illustrator 23.0.1, SVG Export Plug-In . SVG Version: 6.00 Build 0)  -->
<svg version="1.1" id="Camada_1" xmlns="http://www.w3.org/2000/svg" xmlns:xlink="http://www.w3.org/1999/xlink" x="0px" y="0px"
	 viewBox="0 0 3952.9 484" style="enable-background:new 0 0 3952.9 484;" xml:space="preserve">
<style type="text/css">
	.st0{fill:#0055A1;}
	.st1{fill:#009BE0;}
	.st2{fill:#0064B0;}
	.st3{fill:#52AE32;}
</style>
<g>
	<path class="st0" d="M869,236.4c0,42.9-3.7,78-10.6,104.2c-6.8,26.3-17,46.8-29.5,61.1c-12.6,14.1-28,23.8-45.9,28.5
		c-18.1,4.7-37.9,7-59.2,7c-21.8,0-41.8-2.3-59.6-7c-17.8-4.7-33.1-14.1-45.6-28.5c-12.6-14.1-22.5-34.6-29.5-61.1
		c-7-26.3-10.6-61.1-10.6-104.2s3.7-78,10.6-104.2c6.8-26.3,17-46.8,29.5-61.1c12.6-14.1,28-23.8,45.6-28.5c17.8-4.7,37.6-7,59.6-7
		c21.6,0,41.3,2.3,59.2,7c18.1,4.7,33.3,14.1,45.9,28.5c12.6,14.1,22.5,34.6,29.5,61.1C865.3,158.7,869,193.5,869,236.4z
		 M676.3,236.4c0,26.3,0.8,47.6,2.2,63.7c1.5,16.1,3.7,28.8,7,37.6c3.3,9.2,8,15,14.1,17.8c6.3,3.2,13.8,4.3,23.8,4.3
		c9.7,0,17.5-1.5,23.8-4.3c6.3-3.2,11-9.2,14.1-17.8c3.3-9.2,5.8-21.5,7-37.6s2.2-37.4,2.2-63.7c0-26.1-0.8-47.4-2.2-63.2
		c-1.5-16.1-3.7-28.8-7-37.6c-3.3-9-8-15-14.1-18.1c-6.3-3.2-13.8-4.7-23.8-4.7c-9.7,0-17.5,1.5-23.8,4.7c-6.3,3.2-11,9.5-14.1,18.1
		c-3.3,9.2-5.8,21.5-7,37.6C677.1,189.5,676.3,210.5,676.3,236.4z"/>
	<path class="st0" d="M1072.8,122.9h-70.2c-13.6,0-20.6-6.7-20.6-19.6V43.1h258.1c13.6,0,20.6,6.7,20.6,19.6v60.1h-90.2v306.5h-77.2
		c-13.6,0-20.6-6.7-20.6-19.6L1072.8,122.9L1072.8,122.9z"/>
	<path class="st0" d="M1419.4,334.8h-78c-2.3,17-4.3,34.1-6.3,50.9c-1.8,16.6-3.2,31.4-4,44.1h-74.5c-5.2,0-9.5-1.5-12.6-4.8
		c-3.2-3.3-4.7-9.2-4.7-16.6c0-3.3,0.3-7,0.5-10.6c0.3-3.7,1.2-7.2,1.5-10.6c10.2-60.9,21.5-119.5,34.1-175.4s28.8-112,47.9-167.7
		h101c7.5,0,12.6,1.8,15.6,5.8c3.2,3.7,5.2,7.7,6.8,11.5c16.6,49.9,32.1,106.2,45.6,169.4c13.6,62.9,26.1,129.5,36.8,199.5h-80.2
		c-11.8,0-18.8-6.8-20.6-20.1L1419.4,334.8z M1380.3,114.6c-7.7,31.3-13.8,58.7-18.6,82.7c-4.7,24.1-9.2,46.8-13,68.4h63.4
		c-4.2-21.6-8.5-44.4-13-68.4C1394.1,173.4,1388,145.9,1380.3,114.6z"/>
	<path class="st0" d="M1559.2,49.7c20.8-4.2,41.6-7.2,62.1-9.5c20.6-2.2,39.1-3.2,56.1-3.2c20.3,0,38.8,1.8,55.9,5.5
		c16.6,3.7,31,9.7,42.6,17.8c11.5,8.3,20.6,19.3,27.1,32.9c6.3,13.6,9.7,30.1,9.7,49.9c0,20.8-4.2,38.3-11.8,51.9
		c-8,13.6-21.5,25.5-40.4,34.9c12.6,5.2,23,11.3,31.3,18.1c8.3,7,14.5,14.5,18.8,23c4.3,8.3,7.5,17,9.5,25.8
		c1.5,9.2,2.5,17.8,2.5,27c0,20.8-3.3,37.9-10.2,51.4c-6.8,13.3-15.8,24.5-27.3,32.4c-11.5,8.3-25,13.8-40.8,17
		c-15.6,3.2-32.4,4.7-50.1,4.7h-114c-13.6,0-20.6-6.7-20.6-19.6L1559.2,49.7L1559.2,49.7z M1652.7,198.1h29
		c14.1,0,24.5-3.2,30.5-9.5c6.3-6.3,9.5-18.1,9.5-35.8c0-17.5-3.2-29.3-9.2-35.3c-6-6-16.3-9.5-31.8-9.5c-3.7,0-8.5,0-14.5,0.3
		c-6,0.3-10.3,0.5-13.3,0.8v88.9H1652.7z M1652.7,361h32.4c15.8,0,27.3-4,34.3-11.3c7-7.7,10.3-20,10.3-37.1
		c0-17.8-4-30.5-11.3-37.6c-7.7-7.2-20.6-11-38.6-11h-27L1652.7,361L1652.7,361z"/>
	<path class="st0" d="M2137.8,236.4c0,42.9-3.7,78-10.6,104.2c-7,26.3-17,46.8-29.5,61.1c-12.6,14.1-28,23.8-45.9,28.5
		c-18.1,4.7-37.9,7-59.2,7c-21.8,0-41.8-2.3-59.6-7c-17.8-4.7-33.1-14.1-45.6-28.5c-12.6-14.1-22.5-34.6-29.5-61.1
		c-7-26.3-10.6-61.1-10.6-104.2s3.7-78,10.6-104.2c7-26.3,17-46.8,29.5-61.1c12.6-14.1,28-23.8,45.6-28.5c17.8-4.7,37.6-7,59.6-7
		c21.6,0,41.3,2.3,59.2,7c18.1,4.7,33.3,14.1,45.9,28.5c12.6,14.1,22.5,34.6,29.5,61.1C2134.1,158.7,2137.8,193.5,2137.8,236.4z
		 M1945.3,236.4c0,26.3,0.8,47.6,2.2,63.7c1.5,16.1,3.7,28.8,7,37.6c3.3,9,8,15,14.1,17.8c6.3,3.2,13.8,4.3,23.8,4.3
		c9.7,0,17.5-1.5,23.8-4.3c6.3-3.2,11-9.2,14.1-17.8c3.3-9.2,5.8-21.5,7-37.6c1.2-16.1,2.2-37.4,2.2-63.7c0-26.1-0.8-47.4-2.2-63.2
		c-1.5-16.1-3.7-28.8-7-37.6c-3.3-8.8-8-15-14.1-18.1c-6.3-3.2-13.8-4.7-23.8-4.7c-9.7,0-17.5,1.5-23.8,4.7
		c-6.3,3.2-11,9.5-14.1,18.1c-3.3,9.2-5.8,21.5-7,37.6C1946.1,189.5,1945.3,210.5,1945.3,236.4z"/>
	<path class="st0" d="M2337.6,334.8h-78c-2.3,17-4.3,34.1-6.3,50.9c-1.8,16.6-3.2,31.4-4,44.1h-74.5c-5.2,0-9.5-1.5-12.6-4.8
		c-3.2-3.3-4.7-9.2-4.7-16.6c0-3.3,0.3-7,0.5-10.6c0.3-3.7,1.2-7.2,1.5-10.6c10.2-60.9,21.5-119.5,34.1-175.4
		c12.6-56.1,28.8-112,47.9-167.7h101c7.5,0,12.6,1.8,15.6,5.8c3.2,3.7,5.2,7.7,6.8,11.5c16.6,49.9,32.1,106.2,45.6,169.4
		c13.6,62.9,26.1,129.5,36.8,199.5h-80c-11.8,0-18.8-6.8-20.6-20.1L2337.6,334.8z M2298.7,114.6c-7.7,31.3-13.8,58.7-18.6,82.7
		c-4.7,24.1-9.2,46.8-13,68.4h63.4c-4.2-21.6-8.5-44.4-13-68.4C2312.7,173.4,2306.5,145.9,2298.7,114.6z"/>
	<path class="st0" d="M2756.1,429.6h-76.4c-5.8,0-10.2-2.2-13.6-6.3c-3.7-4.2-6.3-8.8-8-13.8c-7.5-18.8-15-38.3-23-57.7
		c-7.7-19.6-15.8-38.4-23.8-57.1c-8-18.6-15.8-36.3-23.5-53.4c-7.7-17-15-32.4-21.8-45.6v234H2498c-13.6,0-20.6-6.7-20.6-19.6V43.1
		h73c5.8,0,10.3,2.2,14.5,6.3c4.2,4.2,7.5,8.8,10.2,13.8c6.3,12.8,13.3,27.6,21.5,44.1c8,16.1,15.8,33.6,24.5,51.4
		c8.5,17.8,16.1,35.8,24.5,54.6c8.3,18.3,15.6,35.9,22.1,53.1V43.1h68.1c13.6,0,20.6,6.7,20.6,19.6L2756.1,429.6L2756.1,429.6
		L2756.1,429.6z"/>
	<path class="st0" d="M3014.4,43.1c13.6,0,20.6,6.7,20.6,19.6v57.6h-134.9v73.5h98c13.6,0,20.6,6.7,20.6,19.6V271h-118.8v81.7h119.8
		c13.6,0,20.6,6.7,20.6,19.6v57.6h-214.5c-13.6,0-20.6-6.7-20.6-19.6V43.1H3014.4z"/>
	<path class="st0" d="M3356.3,429.6h-76.5c-5.8,0-10.2-2.2-13.6-6.3c-3.7-4.2-6.3-8.8-8-13.8c-7.5-18.8-15-38.3-23-57.7
		c-7.7-19.6-15.8-38.4-23.8-57.1c-8-18.5-15.8-36.3-23.5-53.4s-15-32.4-21.8-45.6v234h-68.1c-13.6,0-20.6-6.7-20.6-19.6V43.1h73
		c5.8,0,10.3,2.2,14.5,6.3c4.2,4.2,7.5,8.8,10.2,13.8c6.3,12.8,13.3,27.6,21.5,44.1c8,16.1,15.8,33.6,24.5,51.4
		c8.5,17.8,16.1,35.8,24.5,54.6c8.3,18.3,15.6,35.9,22.1,53.1V43.1h68.1c13.6,0,20.6,6.7,20.6,19.6L3356.3,429.6L3356.3,429.6
		L3356.3,429.6z"/>
	<path class="st0" d="M3398.7,154.2c0-21.8,3.2-40.4,9.5-55.6c6.3-15,15-27.1,26.6-36.3c11.6-9.2,25.5-15.8,41.8-20.1
		c16.1-4.2,34.8-6.3,55.4-6.3c18.6,0,34.6,1.5,47.6,3.7c13,2.2,23.5,5.2,31,8c9.7,4.2,15.3,9.2,17,14.5c1.5,5.8,2.5,11,2.5,16.1
		v39.9c-8.5-0.3-16.1-0.8-23-1.5s-13-1.2-19.6-1.2c-6.7-0.3-12.6-0.3-18.8-0.5c-6.7-0.3-13-0.3-20.6-0.3c-11.5,0-20.8,0.8-28.1,2.3
		c-7.3,1.5-12.8,3.7-17,6.3c-4.3,2.5-7,6-8.3,10.2c-1.5,4.2-2.3,8.5-2.3,13.3c0,5.8,0.5,10.3,2.2,14.1c1.5,4,4,7.5,7.7,11
		c4,3.3,9.7,7,17.1,10.6c7.7,3.7,17.8,8.3,31,13.8c17,7.5,31.4,14.6,42.9,21.6c11.5,7.2,21.1,15,28.5,24.1
		c7.2,9.2,12.3,19.3,15.6,31.3c3.3,11.8,4.7,26.3,4.7,42.9c0,21.1-2.3,39.1-7.2,54.6c-4.8,15-12.6,27.6-23.3,37.4
		c-10.6,10-24.5,17-41.1,21.6c-16.6,4.7-37.1,7-61.4,7c-17.8,0-34.6-1.2-50.1-3.2c-15.6-2.2-27.6-4.7-35.9-8
		c-7.7-3.2-13-6.8-16.1-11.3c-3.2-4.5-4.3-10.2-4.3-16.3v-45.1c14.5,1.2,28.8,2.2,42.3,2.5c13.6,0.5,28,0.8,42.3,0.8
		c12.6,0,23-0.8,31-2.3c8-1.5,14.1-3.7,18.3-6.7c4.3-2.8,7.2-6.3,8.5-10.6c1.5-4.3,2.3-9.2,2.3-14.1c0-6.8-1.2-12-2.8-16.3
		c-1.7-4.3-5.2-8.3-10-11.5c-4.7-3.7-11-7-18.8-10.6c-8-3.5-18.1-8-30.5-13c-17.5-7-31.8-14.1-42.9-21.6c-11.1-7.5-20-15.8-26.3-25
		c-6.7-9.5-11-19.6-13.3-31C3399.9,181.7,3398.7,168.7,3398.7,154.2z"/>
	<path class="st0" d="M3889,43.1c13.6,0,20.6,6.7,20.6,19.6v57.6h-134.9v73.5h98c13.6,0,20.6,6.7,20.6,19.6V271h-118.8v81.7h119.8
		c13.6,0,20.6,6.7,20.6,19.6v57.6h-214.7c-13.6,0-20.6-6.7-20.6-19.6V43.1H3889z"/>
</g>
<path class="st1" d="M247.2,465.6c-7.6-2.3-13.7-8.3-13.7-13.5c0-5.1,6.7-11.7,14.1-13.9c3.1-0.9,9.9-1.7,15.1-1.7
	c12.3,0,19.8,2.3,25,7.5c11.3,11.3-2.2,23.6-25.5,23.4C257.2,467.5,250.5,466.6,247.2,465.6z"/>
<path class="st1" d="M162.5,454.2c-8.5-2.2-14.9-5.5-21.6-11.3c-9.9-8.5-11.3-15.4-3.9-18.4c7.6-3.2,26.2,3.4,35.3,12.6
	c5.1,5.1,8,13.1,5.6,15.5C175.2,455.2,169.1,455.8,162.5,454.2z"/>
<path class="st1" d="M352.3,453.8c-9.3-3.9-6.1-14.6,6.6-22.7c9.2-5.8,19.8-8.5,26.1-6.7c12.7,3.8,6.7,18.2-11.1,26.3
	C366.6,453.9,356.1,455.5,352.3,453.8z"/>
<path class="st1" d="M308.3,435.9c-9.2-2.7-12.7-7.5-15.1-20.1c-2.9-14.2-8.6-18.6-25.2-18.3c-19.1,0.3-31.4-7.1-37.1-22.1
	c-3.2-8.6-2.9-14.7,1-23.6c6.6-15,28.8-21.6,45.6-13.6c10.5,5.1,19.4,19.3,19.4,31c0,7.8,9.7,17.7,18.3,18.9c2.2,0.3,9,1.1,15.1,1.8
	c11.8,1.3,15.5,2.9,20.5,9.5c3.8,5.1,3.3,14.7-1,21.2C341.6,433.1,322.4,440.2,308.3,435.9z"/>
<path class="st1" d="M193.1,433.9c-6.1-2.3-16.1-10.7-18.8-15.9c-2.4-4.6-2.4-14.2,0-18.9c1-1.9,3.9-5,6.6-6.6
	c6.6-4.1,23.6-4.2,32.2-0.3c11.2,5.2,17.8,14.2,17.8,24.4c0,8.3-2.9,13.1-10.2,16.8C214.6,436.4,201.2,436.7,193.1,433.9z"/>
<path class="st1" d="M406.9,413.8c-5.6-4.1-1.3-18.9,8.4-29.4c9.8-10.7,22.6-15.6,28.3-10.9c2.9,2.4,2.5,9.7-0.8,16.5
	c-5.2,10.8-23.1,25.5-31,25.5C410.5,415.6,408.2,414.8,406.9,413.8z"/>
<path class="st1" d="M103.7,411.7c-10-5.3-24-24-24-32.3c0-8.6,6.6-10.9,17.3-5.8c6.6,3.3,17.7,14.7,20.8,21.9
	c2.8,6.1,3.3,15,1,17.3S108.9,414.5,103.7,411.7z"/>
<path class="st1" d="M132.4,385.8c-10.5-4.8-17.8-14.1-22.2-28.1c-4.7-14.7-12.8-24.3-24.3-28.5c-15.3-5.7-24-17.8-24.9-34.4
	c-0.9-16.5,4.7-23.5,21.2-26.7c3.8-0.8,8.1-2.2,9.8-3.3c3.9-2.5,7.9-9,8.8-14.5c4.3-27.7,10.2-36.1,27.2-39.4
	c23-4.6,29.6-9.4,32.9-24.1c2.2-9.8-2.7-21.4-10.7-25.8c-1.4-0.8-7.5-1.7-13.5-2.2c-14-1-19.8-3.8-23.8-11.6
	c-2.4-4.6-2.9-7-2.4-12.8c2-23.4,28.7-40.9,46.3-30.2c5.5,3.3,7.9,8.4,9.3,20c0.8,5.3,2.3,11.8,3.6,14.2
	c3.3,6.4,10.5,10.3,19.3,10.3c23.4,0.1,37.6,10.9,39,29.6c0.8,9.8-1,16.6-6.5,24.7c-5.6,8.1-14.1,12.5-30.6,15.4
	c-20.6,3.8-24.3,7-28.7,24.4c-3.6,14.4-7.5,22.7-13.1,27.7c-6.1,5.3-8.5,6.2-20,7.4c-16.1,1.5-21.6,5.2-24,16.1
	c-2.8,13.1,3.4,27.3,14.6,33.6c2.8,1.5,9.2,3.6,14.2,4.7c10.9,2.3,14.7,4.1,21.1,10.3c6.5,6.4,9.8,13.3,10.5,22.6
	c0.6,6.6,0.3,8.8-2.3,13.5C157.9,388.9,145.2,391.9,132.4,385.8z"/>
<path class="st2" d="M372.8,385.8c-9.2-3.3-11.8-7.6-13.6-22c-0.8-5.3-2.3-11.8-3.6-14.2c-3.2-6.2-10.7-10.3-18.8-10.3
	c-23.9,0-38.3-11.1-39.7-30.4c-0.6-9.2,1.3-16.1,6.6-23.9c5.6-8.1,14.1-12.5,30.6-15.4c20.6-3.8,24.3-7,28.7-24.4
	c3.6-14.4,7.5-22.7,13.1-27.7c6.1-5.3,8.5-6.2,20-7.4c16.3-1.5,21.7-5.2,24-16.4c2.7-13-3.6-27.1-14.6-33.3
	c-2.8-1.5-9.2-3.6-14.2-4.7c-10.9-2.3-14.7-4.1-21.1-10.3c-6.5-6.4-9.8-13.3-10.5-22.6c-1.3-14.5,6.7-23.8,20.5-23.8
	c15.5,0,28.8,11.8,34.9,31.1c4.7,14.7,12.8,24.3,24.3,28.6c15.4,5.6,24.1,17.7,24.9,34.3c0.9,16.5-4.7,23.5-21.2,26.7
	c-3.8,0.8-8.1,2.2-9.8,3.3c-3.9,2.5-7.9,9-8.8,14.5c-4.3,27.7-10.2,36.1-27.2,39.4c-23,4.6-29.6,9.4-32.9,24.1
	c-2.2,9.8,2.7,21.4,10.7,25.8c1.4,0.8,7.5,1.7,13.5,2.2c14,1,19.8,3.8,23.8,11.6c7.9,15.1-3.2,37.2-22.2,44.4
	C382.2,388,379.5,388.1,372.8,385.8z"/>
<path class="st1" d="M58.3,359c-5.6-6.2-9.8-14-12.8-23.4c-4.3-13.2-2.9-20.6,3.6-18.6c4.3,1.3,13.9,13.1,16.5,20.3
	c3.1,8,4.6,18.3,3.4,22.7C67.8,365,63,364.5,58.3,359z"/>
<path class="st1" d="M457.9,359.4c-2.5-3.7-2.5-6.2,0.4-17.2c3.4-13.3,10-22.6,18.3-25.7c3.2-1.3,3.7-1,4.8,2.2
	c2,5.2,0.8,10.2-6.6,25c-5.8,11.9-10.8,18.4-14,18.4C460.3,362.2,458.9,360.9,457.9,359.4z"/>
<path class="st3" d="M182.9,336.5c-2.9-1.4-7.9-5.5-11.1-8.9c-14.7-16.4-11.7-40.7,6.4-51.2c4.4-2.7,8-3.6,18.8-4.3
	c13.5-1.1,17-2.3,22.2-7c5.2-4.6,7-9.7,7.4-21c0.5-13.1,4.3-22,12.5-28.7c6.9-5.6,12.8-7.6,25.5-8.8c19.8-1.5,28.1-8.8,31.3-26.8
	c3.6-21,14.1-31.1,32.3-31.1c10.7,0,17.9,3.3,25.4,11.7c14.7,16.4,11.7,40.7-6.4,51.2c-4.4,2.7-8,3.6-18.8,4.3
	c-13.6,1.1-18.7,2.8-23.3,8c-4.7,5.2-6,8.9-6.4,19.8c-0.5,13.2-4.3,22.1-12.5,28.8c-6.9,5.6-12.8,7.6-25.5,8.8
	c-19.8,1.5-28.1,8.8-31.3,26.8c-2.5,15.1-9.2,24.9-19.8,29.5C203.3,340.2,189.3,339.7,182.9,336.5z"/>
<path class="st1" d="M430.3,326.2c-6.6-4.3-8.8-9.9-8.8-22.1c0-9.2,0.5-11.2,4.2-18.3c2.2-4.3,6.2-9.7,8.9-11.8
	c4.3-3.4,6-3.9,12.6-3.9c7.1,0,7.9,0.3,11.2,4.3c11.8,14.1,6,42.3-10.8,51.9C441.1,329.9,435.8,329.9,430.3,326.2z"/>
<path class="st1" d="M475.7,275.1c-3.1-3.3-8.8-19.3-8.8-24.8c0-5.1,5.2-20.8,8.1-24.5c3.6-4.6,8.9-4.6,12.5,0
	c6.5,8.1,8.6,25.7,4.7,39C488.5,277.3,481.6,281.6,475.7,275.1z"/>
<path class="st1" d="M37.9,262.2c-6.5-8.1-8.6-25.7-4.7-39c3.7-12.5,10.5-16.8,16.5-10.3c3.1,3.3,8.8,19.3,8.8,24.8
	c0,5.1-5.2,20.8-8.1,24.5C46.7,266.7,41.4,266.7,37.9,262.2z"/>
<path class="st1" d="M71.3,217.4c-5.8-2.5-10.7-13.2-10.7-23.8c0-12.5,7.5-26.4,17.2-31.9c6.5-3.7,11.8-3.7,17.3,0
	c6.6,4.3,8.8,9.9,8.8,22.1c0,9.2-0.5,11.2-4.1,18.3c-5.5,10.3-11.7,15.4-19.7,15.9C76.7,218.3,72.7,218.1,71.3,217.4z"/>
<path class="st1" d="M44,169.3c-0.8-1.9-1-5.3-0.6-7.6c1-6.6,13.7-30.8,17.7-33.8l3.7-2.7l2.4,3.1c3.1,3.7,3.1,6.2,0,17.5
	c-3.4,13.3-10,22.6-18.3,25.7C45.6,172.7,45.1,172.4,44,169.3z"/>
<path class="st1" d="M469,164.8c-7.1-7.4-11.2-16.3-12.7-27.5c-1.1-8.8,0-12.8,3.8-12.8c9.9,0,27.7,38.6,20.8,45.5
	C478.2,172.8,475.8,171.7,469,164.8z"/>
<path class="st1" d="M253.4,152c-11.7-3.2-21.6-14.2-23.9-26.8c-0.8-4.2-1.7-8.9-1.9-10.4c-0.9-4.6-7.8-11.4-13.6-13.6
	c-2.9-1-10-2.2-15.8-2.7c-12.3-0.8-16.3-2-21.1-6.7c-9.7-9.3-5.6-25.4,8.9-34.6c14.9-9.5,37.1-7.6,42.8,3.7c1,1.8,2.5,7,3.3,11.3
	c2.9,14.2,8.6,18.6,25.2,18.3c19.1-0.3,31.4,7.1,37.1,22.1c6.5,17.3-2.3,33.8-20.7,39.3C266.1,154.1,261.5,154.1,253.4,152z"/>
<path class="st1" d="M83.5,115.3c-7.6-3.8-3.4-17.8,9.2-30.2c15-14.7,28.5-16.8,28.2-4.1C120.3,98.6,95.5,121.5,83.5,115.3z"/>
<path class="st1" d="M428.3,114.2c-6.6-3.3-17.5-14.7-20.7-21.7c-2.8-6.1-3.3-15-1-17.3s9.4-1.8,14.9,0.9
	c10.2,5.2,24.3,24,24.3,32.4C445.7,117.2,438.8,119.5,428.3,114.2z"/>
<path class="st1" d="M315,96.8c-8.3-3.1-14.4-8-18.9-16c-2.7-4.4-2-15.8,1-20c5.8-8.4,21.2-11.3,34.6-6.7
	c6.6,2.2,16.5,10.4,19.3,15.9c2.4,4.6,2.4,14.2,0,18.9C346.3,98,329,101.8,315,96.8z"/>
<path class="st1" d="M139.6,63.9c-3.8-0.8-6.9-5.7-6-9.7c2.5-9.7,18.9-20.2,32.3-20.5c5.8-0.1,8.1,0.4,10.3,2.4
	c7.5,6.7-5,21.4-22.7,26.6C146.5,64.8,145,64.9,139.6,63.9z"/>
<path class="st1" d="M374.5,63c-13.7-3.8-25.8-13.5-27.5-21.7c-0.4-2.5-0.3-5.2,0.4-5.8c6-6,24.3-1.3,37,9.7
	c9.5,8.3,11.3,15.3,4.6,18.2C385,65.2,381.9,65.1,374.5,63z"/>
<path class="st1" d="M250.6,50.4c-8.1-2.2-11.2-3.8-14.5-8c-8.5-10.8,5.1-22.1,26.6-22.1c16.4,0,29.2,6.7,29.2,15.5
	c0,5-6.6,11.7-13.3,13.6C270.5,51.7,257.6,52.2,250.6,50.4z"/>
</svg>
