<svg xmlns="http://www.w3.org/2000/svg" viewBox="0 0 86 63.07"><defs><style>.cls-1{fill:red;}.cls-2{fill:#eae9e9;}.cls-3{fill:#1e232b;}</style></defs><title>logofooterAsset 3</title><g id="Layer_2" data-name="Layer 2"><g id="Layer_1-2" data-name="Layer 1"><rect class="cls-1" x="28.43" width="29.14" height="43.48"/><path d="M86,43.48H57.57V0H80a8,8,0,0,1,4.29,2.39A6.7,6.7,0,0,1,86,5.73Z"/><path class="cls-2" d="M28.51,43.48H0V6.69A6.06,6.06,0,0,1,1.92,2.15,6.66,6.66,0,0,1,6.22,0H28.51Z"/><path class="cls-3" d="M0,43.48V55.9a7.2,7.2,0,0,0,7.17,7.17H78.83A7.19,7.19,0,0,0,86,55.9V43.48Z"/></g></g></svg>