<svg xmlns="http://www.w3.org/2000/svg" viewBox="0 0 360.32 264.71"><defs><style>.cls-1{fill:red;}.cls-2{fill:#eae9e9;}.cls-3{fill:#1e232b;}.cls-4{font-size:55.6px;font-family:AlternateGotNo2D, Alternate Gothic No2 D;}.cls-5{letter-spacing:0.03em;}.cls-6{letter-spacing:0em;}.cls-7{letter-spacing:-0.02em;}.cls-8{letter-spacing:0em;}.cls-9{letter-spacing:0em;}.cls-10{letter-spacing:0em;}.cls-11{fill:#424241;}</style></defs><title>logotvAsset 1</title><g id="Layer_2" data-name="Layer 2"><g id="Layer_1-2" data-name="Layer 1"><rect class="cls-1" x="132.89" width="74.12" height="110.58"/><path d="M279.32,110.58H207V0h57.15c2.36,0,7.27,2.43,10.91,6.08,1.82,1.82,4.24,6.31,4.24,8.5Z"/><path class="cls-2" d="M133.09,110.58H60.61V17S60,10.94,65.47,5.47,76.4,0,76.4,0h56.69Z"/><path class="cls-3" d="M60.59,110.58v31.59A18.28,18.28,0,0,0,78.82,160.4H261.09a18.28,18.28,0,0,0,18.23-18.23V110.58Z"/><text class="cls-4" transform="translate(0 228.47) scale(1.37 1)"><tspan class="cls-5">T</tspan><tspan class="cls-6" x="19.85" y="0">V </tspan><tspan class="cls-7" x="50.76" y="0">T</tspan><tspan x="67.77" y="0">A</tspan><tspan class="cls-8" x="90.29" y="0">B</tspan><tspan class="cls-9" x="112.63" y="0">O</tspan><tspan class="cls-10" x="134.48" y="0">ANENSE</tspan></text><path class="cls-11" d="M30.23,249.46C32,257.54,32.72,260.81,33,263h0c.33-2,.79-4.35,3.07-13.5H38c2.12,9.18,2.66,11.52,2.9,13.44h0c.21-1.7.65-3.88,2.82-13.44h1.61l-3.54,15h-2c-1.27-5.62-2.45-10.89-2.86-13.32h0a135.23,135.23,0,0,1-3,13.32H32l-3.38-15Z"/><path class="cls-11" d="M49,249.46c1.8,8.08,2.49,11.35,2.73,13.5h0c.32-2,.78-4.35,3.06-13.5h1.9c2.12,9.18,2.66,11.52,2.9,13.44h0c.21-1.7.65-3.88,2.82-13.44h1.61l-3.54,15h-2c-1.27-5.62-2.45-10.89-2.86-13.32h0a135.23,135.23,0,0,1-3,13.32h-2l-3.38-15Z"/><path class="cls-11" d="M67.71,249.46c1.8,8.08,2.49,11.35,2.73,13.5h0c.32-2,.78-4.35,3.06-13.5h1.9c2.12,9.18,2.66,11.52,2.9,13.44h0c.21-1.7.65-3.88,2.82-13.44h1.62l-3.55,15h-2c-1.27-5.62-2.45-10.89-2.86-13.32h0a135.23,135.23,0,0,1-3,13.32h-2l-3.38-15Z"/><path class="cls-11" d="M84.06,264.47v-3.83h1.58v3.83Z"/><path class="cls-11" d="M87.14,249.46h2.54v-3.78h1.54v3.78h3.23v1H91.22v11.35c0,.84.24,1.76,1.6,1.76a11.61,11.61,0,0,0,1.47-.09v1a9.3,9.3,0,0,1-1.94.16,2.36,2.36,0,0,1-2.67-2.57V250.51H87.14Z"/><path class="cls-11" d="M97.88,249.46c.58,2.09,3.1,11.28,3.47,13.61h0c.25-1.95,3-11.29,3.6-13.61h1.61l-4.32,15h-1.87l-4.2-15Z"/><path class="cls-11" d="M108.55,249.46h2.54v-3.78h1.54v3.78h3.24v1h-3.24v11.35c0,.84.25,1.76,1.6,1.76a11.61,11.61,0,0,0,1.47-.09v1a9.3,9.3,0,0,1-1.94.16,2.36,2.36,0,0,1-2.67-2.57V250.51h-2.54Z"/><path class="cls-11" d="M126.73,262.37a16.09,16.09,0,0,0,.09,2.1h-1.53a5.57,5.57,0,0,1-.17-1.35c-.62,1.31-2.05,1.59-3.33,1.59-2.85,0-4-1.75-4-4.12v-.27c0-3.08,2.33-4.51,6-4.51h1.34V253c0-1.55-.45-2.62-2.45-2.62s-2.6,1.1-2.6,2.53v.56h-1.58v-.56c0-2,1.11-3.65,4.22-3.65s4,1.68,4,3.68Zm-1.57-5.51h-1.34c-2.82,0-4.38.92-4.38,3.4v.27c0,1.64.62,3.06,2.58,3.06,2.44,0,3.14-1.54,3.14-4Z"/><path class="cls-11" d="M131.35,243.53h1.58V251c.46-.93,1.49-1.74,3.7-1.74,2.84,0,4,1.69,4,4.16v6.42c0,2.69-.95,4.86-4.45,4.86-1.86,0-3-.69-3.42-1.74a9.26,9.26,0,0,1-.08,1.56h-1.41c0-.67,0-2,0-4.08Zm7.7,16.42v-6.43c0-2.05-.81-3.19-2.78-3.19-3.05,0-3.38,2.31-3.38,4.76v4.22c0,2.91.94,4.22,3.26,4.22C138.07,263.53,139.05,262.4,139.05,260Z"/><path class="cls-11" d="M153.33,253.34v6.83c0,3.3-2,4.54-4.72,4.54s-4.6-1.16-4.6-4.4v-6.94c0-2.51,1.62-4.16,4.72-4.16S153.33,250.84,153.33,253.34Zm-7.7.06v6.94c0,2.09,1,3.31,3,3.31,1.84,0,3.06-.87,3.06-3.31V253.4a2.8,2.8,0,0,0-3-3.13C146.53,250.27,145.63,251.43,145.63,253.4Z"/><path class="cls-11" d="M165.37,262.37a19.22,19.22,0,0,0,.08,2.1h-1.53a5.57,5.57,0,0,1-.17-1.35c-.62,1.31-2.05,1.59-3.33,1.59-2.84,0-4-1.75-4-4.12v-.27c0-3.08,2.33-4.51,5.95-4.51h1.34V253c0-1.55-.45-2.62-2.45-2.62s-2.6,1.1-2.6,2.53v.56h-1.58v-.56c0-2,1.11-3.65,4.23-3.65s4,1.68,4,3.68Zm-1.58-5.51h-1.34c-2.82,0-4.37.92-4.37,3.4v.27c0,1.64.61,3.06,2.57,3.06,2.44,0,3.14-1.54,3.14-4Z"/><path class="cls-11" d="M170,254c0-3,0-3.7,0-4.5h1.5a12.88,12.88,0,0,1,.08,1.64c.62-1.34,2-1.89,3.74-1.89,2,0,3.88.76,3.88,3.44v11.82h-1.58V252.9a2.27,2.27,0,0,0-2.57-2.57c-2,0-3.43.69-3.43,4.37v9.77H170Z"/><path class="cls-11" d="M184.67,257v2.72c0,1.84.45,3.92,3,3.92,2.28,0,2.81-1.26,2.81-3.07v-.18H192v.15c0,1.91-.65,4.16-4.47,4.16-3.29,0-4.48-1.73-4.48-4.79v-6.3c0-2.52,1.31-4.41,4.6-4.41,3.51,0,4.39,2.14,4.39,4.43V257Zm5.84-1v-2.24c0-1.41-.18-3.45-2.86-3.45s-3,1.69-3,3.48V256Z"/><path class="cls-11" d="M195.83,254c0-3,0-3.7,0-4.5h1.5a12.88,12.88,0,0,1,.08,1.64c.62-1.34,2-1.89,3.74-1.89,2,0,3.88.76,3.88,3.44v11.82h-1.58V252.9a2.27,2.27,0,0,0-2.58-2.57c-2,0-3.42.69-3.42,4.37v9.77h-1.58Z"/><path class="cls-11" d="M209.87,260.25v.63c0,2,1.25,2.77,2.89,2.77,2,0,2.81-.95,2.81-2.73,0-2-.81-2.68-3-3.76-2.68-1.32-3.87-2.35-3.87-4.36s1-3.59,4.18-3.59c3.38,0,4.06,1.83,4.06,3.56v.78h-1.57v-.72c0-1.52-.54-2.56-2.57-2.56-1.75,0-2.48.86-2.48,2.41s.61,2.17,2.86,3.3c2.41,1.21,4,2.23,4,4.73s-1.37,4-4.55,4c-3.4,0-4.39-1.78-4.39-3.77v-.69Z"/><path class="cls-11" d="M221.94,257v2.72c0,1.84.45,3.92,3,3.92,2.29,0,2.82-1.26,2.82-3.07v-.18h1.57v.15c0,1.91-.65,4.16-4.47,4.16-3.29,0-4.47-1.73-4.47-4.79v-6.3c0-2.52,1.3-4.41,4.59-4.41,3.52,0,4.39,2.14,4.39,4.43V257Zm5.84-1v-2.24c0-1.41-.17-3.45-2.86-3.45s-3,1.69-3,3.48V256Z"/><path class="cls-11" d="M232.54,264.47v-3.83h1.58v3.83Z"/><path class="cls-11" d="M246.44,260v.21c0,2.47-.86,4.52-4.47,4.52-3.24,0-4.34-1.73-4.34-4.7v-6.55c0-2.63,1.43-4.25,4.51-4.25,3.33,0,4.3,1.83,4.3,4v.66h-1.61v-.4c0-1.58-.37-3.18-2.73-3.18-2,0-2.85,1.07-2.85,3.39V260c0,1.69.44,3.62,2.77,3.62,1.95,0,2.81-.84,2.81-3.45V260Z"/><path class="cls-11" d="M258.94,253.34v6.83c0,3.3-2,4.54-4.72,4.54s-4.59-1.16-4.59-4.4v-6.94c0-2.51,1.62-4.16,4.72-4.16S258.94,250.84,258.94,253.34Zm-7.69.06v6.94c0,2.09,1,3.31,3,3.31,1.84,0,3.06-.87,3.06-3.31V253.4a2.8,2.8,0,0,0-3-3.13C252.14,250.27,251.25,251.43,251.25,253.4Z"/><path class="cls-11" d="M262.9,253.75c0-2.45,0-3.52,0-4.29h1.49a8,8,0,0,1,.09,1.49c.5-1,1.53-1.74,3.42-1.74,1.48,0,2.67.43,3.08,1.86a3.73,3.73,0,0,1,3.63-1.86c1.78,0,3.67.49,3.67,3.35v11.91h-1.58V252.86c0-1.31-.25-2.53-2.33-2.53-2.44,0-3,1.72-3,3.49v10.65h-1.58V253c0-1.88-.58-2.71-2.41-2.71-2.32,0-2.89,1.78-2.89,3.78v10.36H262.9Z"/><path class="cls-11" d="M282.19,264.47v-3.83h1.57v3.83Z"/><path class="cls-11" d="M287.52,243.53h1.58V251c.45-.93,1.49-1.74,3.7-1.74,2.84,0,4,1.69,4,4.16v6.42c0,2.69-.94,4.86-4.45,4.86-1.85,0-3-.69-3.41-1.74a9.26,9.26,0,0,1-.08,1.56h-1.41c0-.67,0-2,0-4.08ZM295.21,260v-6.43c0-2.05-.81-3.19-2.77-3.19-3.05,0-3.38,2.31-3.38,4.76v4.22c0,2.91.93,4.22,3.26,4.22C294.23,263.53,295.21,262.4,295.21,260Z"/><path class="cls-11" d="M300.79,254.59c0-2.35,0-4,0-5.13h1.53a20.26,20.26,0,0,1,.09,2.25,4.42,4.42,0,0,1,4.12-2.44v1.44a3.82,3.82,0,0,0-4.12,4.1v9.66h-1.58Z"/></g></g></svg>