<svg xmlns="http://www.w3.org/2000/svg" viewBox="0 0 216.01 33.71"><defs><style>.cls-1{fill:red;}.cls-2{fill:#eae9e9;}.cls-3{fill:#1e232b;}.cls-4{font-size:26.26px;font-family:AlternateGotNo2D, Alternate Gothic No2 D;letter-spacing:0em;}.cls-5{letter-spacing:-0.02em;}.cls-6{letter-spacing:-0.05em;}.cls-7{letter-spacing:-0.02em;}.cls-8{letter-spacing:-0.03em;}</style></defs><title>logotvAsset 2</title><g id="Layer_2" data-name="Layer 2"><g id="Layer_1-2" data-name="Layer 1"><rect class="cls-1" x="15.18" width="15.54" height="23.18"/><path d="M45.88,23.18H30.72V0h12A4.23,4.23,0,0,1,45,1.27a3.65,3.65,0,0,1,.89,1.79Z"/><path class="cls-2" d="M15.22,23.18H0V3.57A3.22,3.22,0,0,1,1,1.15,3.56,3.56,0,0,1,3.34,0H15.22Z"/><path class="cls-3" d="M0,23.28,0,29.9a3.83,3.83,0,0,0,3.84,3.81l38.21-.16a3.83,3.83,0,0,0,3.8-3.84l0-6.62Z"/><text class="cls-4" transform="translate(57.5 25.89) scale(1.37 1)">T<tspan class="cls-5" x="8.72" y="0">V </tspan><tspan class="cls-6" x="22.01" y="0">T</tspan><tspan class="cls-5" x="29.39" y="0">A</tspan><tspan class="cls-7" x="39.37" y="0">B</tspan><tspan class="cls-8" x="49.27" y="0">O</tspan><tspan class="cls-5" x="58.93" y="0">ANENSE</tspan></text></g></g></svg>