<?xml version="1.0" encoding="utf-8"?>
<!-- Generator: Adobe Illustrator 23.0.1, SVG Export Plug-In . SVG Version: 6.00 Build 0)  -->
<svg version="1.1" id="Layer_1" xmlns="http://www.w3.org/2000/svg" xmlns:xlink="http://www.w3.org/1999/xlink" x="0px" y="0px"
	 viewBox="0 0 629 77.1" style="enable-background:new 0 0 629 77.1;" xml:space="preserve">
<style type="text/css">
	.st0{fill:#FF0000;}
	.st1{fill:#EAE9E9;}
	.st2{fill:#1E232B;}
</style>
<title>logotvAsset 2</title>
<rect x="36.5" y="0.9" class="st0" width="35.1" height="52.6"/>
<path d="M106.1,53.5H71.6V0.9h27.2c2,0.4,3.9,1.4,5.3,3c1.1,1.1,1.8,2.4,2,4.1C106.1,8,106.1,53.5,106.1,53.5z"/>
<path class="st1" d="M36.5,53.5H2V9c0-2,0.7-4.1,2.3-5.4C5.6,2,7.4,1.2,9.6,0.9h27L36.5,53.5L36.5,53.5z"/>
<path class="st2" d="M2,53.6v15c0,4.7,3.9,8.7,8.7,8.7l86.7-0.4c4.7,0,8.7-3.9,8.7-8.7v-15L2,53.6z"/>
<g>
	<path d="M138.6,53.5h-13.3V16.1H118V4.3h28.2v11.8h-7.6V53.5z"/>
	<path d="M173.2,53.5h-13.5L148.4,4.3h13.9l2.4,14c0.9,5.4,1.6,11.4,2.2,18c0.2-2.9,0.5-5.7,0.9-8.3c0.3-2.6,0.7-5.1,1.2-7.5
		l3.2-16.3h14.4L173.2,53.5z"/>
	<path d="M226.8,53.5h-13.3V16.1h-7.3V4.3h28.2v11.8h-7.6V53.5z"/>
	<path d="M272.1,53.5h-13.7l-1-6.2h-8.9l-1.1,6.2h-13.7l11.8-49.1h16.2L272.1,53.5z M255.8,36.7l-0.9-5.7c0,0-0.1-0.3-0.1-0.9
		c0-0.5-0.3-2.3-0.7-5.5c0-0.4-0.1-0.9-0.2-1.5c-0.1-0.6-0.1-1.4-0.3-2.4l-0.4-4.6c0,0.4-0.1,0.9-0.2,1.5c-0.1,0.6-0.2,1.2-0.2,1.8
		c-0.1,1.3-0.3,2.2-0.3,2.7c-0.1,0.5-0.1,0.8-0.1,0.9l-0.9,6l-1.3,7.7H255.8z"/>
	<path d="M275.9,53.5V4.3h15.4c5.8,0,10,1.3,12.8,3.8c2.8,2.6,4.2,6,4.2,10.1c0,6.2-3.1,9.5-9.2,10c3.5,0.5,6,1.7,7.7,3.4
		c1.6,1.8,2.4,4.3,2.4,7.7c0,4.2-1.4,7.6-4.1,10.2c-2.7,2.6-6.3,3.9-10.7,3.9H275.9z M289.2,23.4h0.9c1.6,0,2.8-0.4,3.8-1.1
		s1.4-1.8,1.4-3.1c0-2.8-1.6-4.3-4.7-4.3c-0.1,0-0.3,0-0.6,0c-0.2,0-0.5,0-0.8,0V23.4z M289.2,42.8c0.3,0,0.5,0,0.7,0
		c0.2,0,0.4,0,0.5,0c1.7,0,3-0.4,4-1.3s1.5-2,1.5-3.5s-0.5-2.6-1.5-3.4c-1-0.8-2.3-1.2-4.1-1.2h-1.1V42.8z"/>
	<path d="M350.9,29.1c0,7.5-1.7,13.6-5.1,18.3c-3.4,4.7-7.8,7-13.3,7c-4.8,0-9-1.8-12.4-5.4c-4.3-4.5-6.5-11.4-6.5-20.4
		c0-8.7,2.3-15.3,6.8-20c3.4-3.4,7.4-5.1,12-5.1c5.7,0,10.2,2.3,13.5,6.9S350.9,21.2,350.9,29.1z M337.1,29.2
		c0-8.9-1.6-13.3-4.7-13.3c-1.6,0-2.8,1.2-3.8,3.5c-0.9,2.2-1.4,5.3-1.4,9.5c0,4.1,0.4,7.3,1.3,9.6c0.9,2.3,2.1,3.4,3.6,3.4
		c1.6,0,2.8-1.1,3.6-3.4C336.7,36.3,337.1,33.2,337.1,29.2z"/>
	<path d="M390.9,53.5h-13.7l-1-6.2h-8.9l-1.1,6.2h-13.7l11.8-49.1h16.2L390.9,53.5z M374.7,36.7l-0.9-5.7c0,0-0.1-0.3-0.1-0.9
		c0-0.5-0.3-2.3-0.7-5.5c0-0.4-0.1-0.9-0.2-1.5c-0.1-0.6-0.1-1.4-0.3-2.4l-0.4-4.6c0,0.4-0.1,0.9-0.2,1.5c-0.1,0.6-0.2,1.2-0.2,1.8
		c-0.1,1.3-0.3,2.2-0.3,2.7c-0.1,0.5-0.1,0.8-0.1,0.9l-0.9,6l-1.3,7.7H374.7z"/>
	<path d="M394.8,53.5V4.3h12.7l6.7,17.2c0.4,1,0.8,2.2,1.2,3.5s1,2.8,1.5,4.6l1.4,4.3c-0.5-4.3-0.9-7.9-1.1-10.9
		c-0.3-3-0.4-5.6-0.4-7.6v-11h12.7v49.1h-12.7L410,35.4c-0.7-1.9-1.3-3.7-1.9-5.4c-0.6-1.7-1.1-3.3-1.5-4.8c0.3,3.5,0.5,6.5,0.6,9
		c0.1,2.6,0.2,4.8,0.2,6.7v12.5H394.8z"/>
	<path d="M436.2,53.5V4.3h24.7v11.6h-11.4v7.2h10.2v11.1h-10.2v7.5h11.4v11.8H436.2z"/>
	<path d="M466.6,53.5V4.3h12.7l6.7,17.2c0.4,1,0.8,2.2,1.2,3.5s1,2.8,1.5,4.6L490,34c-0.5-4.3-0.9-7.9-1.1-10.9
		c-0.3-3-0.4-5.6-0.4-7.6v-11h12.7v49.1h-12.7l-6.7-18.1c-0.7-1.9-1.3-3.7-1.9-5.4c-0.6-1.7-1.1-3.3-1.5-4.8c0.3,3.5,0.5,6.5,0.6,9
		c0.1,2.6,0.2,4.8,0.2,6.7v12.5H466.6z"/>
	<path d="M507,52.3V36.8c2.6,3.6,5.4,5.3,8.5,5.3c1.1,0,2.1-0.3,2.8-0.9c0.7-0.6,1.1-1.4,1.1-2.3c0-1.3-0.8-2.6-2.4-3.9l-2.2-1.7
		c-1.4-1.1-2.7-2.2-3.7-3.2c-1-1.1-1.8-2.2-2.5-3.3c-0.6-1.1-1.1-2.3-1.4-3.5c-0.3-1.2-0.4-2.5-0.4-3.8c0-2.3,0.5-4.7,1.6-7.2
		c0.5-1.2,1.1-2.2,1.8-3.2s1.5-1.8,2.4-2.6c2.5-2.1,5.5-3.2,9.1-3.2c3.2,0,6.3,0.8,9.5,2.5v15c-1.1-1.7-2.3-3-3.7-4
		c-1.4-1-2.7-1.4-4.1-1.4c-1,0-1.9,0.3-2.5,0.9c-0.7,0.6-1,1.3-1,2.1c0,1.3,0.9,2.6,2.7,3.9l2.1,1.6c2.8,2,4.8,4.1,6,6.2
		c1.2,2.1,1.8,4.6,1.8,7.4c0,4.8-1.5,8.8-4.4,12s-6.7,4.7-11.2,4.7C513.9,54.3,510.5,53.6,507,52.3z"/>
	<path d="M537.8,53.5V4.3h24.7v11.6h-11.4v7.2h10.2v11.1h-10.2v7.5h11.4v11.8H537.8z"/>
</g>
<g>
	<path d="M121.7,59.1h1.8l3.6,17h-2.3l-0.6-3.3h-3.4l-0.6,3.3H118L121.7,59.1z M123.9,71l-0.5-2.7c-0.3-1.8-0.6-3.8-0.8-5.9
		c-0.1,1-0.2,2.1-0.4,3.1c-0.2,1-0.4,2.2-0.6,3.3l-0.4,2.2H123.9z"/>
	<path d="M133.2,59.1h3c1.5,0,2.5,0.4,3.2,1.1c0.7,0.7,1,1.9,1,3.5c0,2.3-0.7,3.7-2,4.4c-0.7,0.3-1.6,0.5-2.9,0.5v7.5h-2.3V59.1z
		 M135.5,66.6c0.9,0,1.6-0.2,2-0.6c0.4-0.4,0.6-1.1,0.6-2.1c0-1-0.2-1.8-0.5-2.2c-0.4-0.5-0.9-0.7-1.7-0.7h-0.3V66.6z"/>
	<path d="M142.1,59.1h3c1.2,0,2.2,0.3,2.8,0.9c0.8,0.8,1.2,1.9,1.2,3.5c0,1.2-0.2,2.2-0.6,2.9c-0.4,0.7-1,1.2-1.7,1.4l3.1,8.3h-2.3
		l-3.1-8.3v8.3h-2.3V59.1z M144.4,66.7c0.9,0,1.5-0.2,1.9-0.6c0.4-0.4,0.6-1.1,0.6-2.1c0-0.5,0-1-0.1-1.4c-0.1-0.4-0.2-0.7-0.4-0.9
		c-0.2-0.2-0.4-0.4-0.6-0.5c-0.3-0.1-0.6-0.2-0.9-0.2h-0.4V66.7z"/>
	<path d="M151.6,59.1h2.3v17h-2.3V59.1z"/>
	<path d="M157.3,59.1h2l1.5,6.9c0.2,0.9,0.4,1.7,0.5,2.6s0.3,1.8,0.4,2.7c0-0.1,0-0.2,0-0.3c0-0.1,0-0.1,0-0.1l0.3-1.9l0.3-1.8
		l0.3-1.2l1.3-6.8h2l1.6,17h-2.2l-0.4-5.8c0-0.3,0-0.5,0-0.8c0-0.2,0-0.4,0-0.5l-0.1-2.3l-0.1-2.1c0,0,0,0,0-0.1c0,0,0-0.1,0-0.2
		l-0.1,0.3c-0.1,0.4-0.1,0.8-0.2,1.1c0,0.3-0.1,0.6-0.1,0.8l-0.3,1.6l-0.1,0.6l-1.4,7.4H161l-1.3-6.4c-0.2-0.8-0.3-1.7-0.5-2.6
		c-0.1-0.9-0.3-1.8-0.4-2.7l-0.7,11.7h-2.2L157.3,59.1z"/>
	<path d="M169.4,59.1h6.1v1.9h-3.8v5.4h3.4v1.9h-3.4v5.8h3.8v1.9h-6.1V59.1z"/>
	<path d="M177.6,59.1h2.3v17h-2.3V59.1z"/>
	<path d="M182.5,59.1h3c1.2,0,2.2,0.3,2.8,0.9c0.8,0.8,1.2,1.9,1.2,3.5c0,1.2-0.2,2.2-0.6,2.9c-0.4,0.7-1,1.2-1.7,1.4l3.1,8.3h-2.3
		l-3.1-8.3v8.3h-2.3V59.1z M184.7,66.7c0.9,0,1.5-0.2,1.9-0.6c0.4-0.4,0.6-1.1,0.6-2.1c0-0.5,0-1-0.1-1.4c-0.1-0.4-0.2-0.7-0.4-0.9
		c-0.2-0.2-0.4-0.4-0.6-0.5c-0.3-0.1-0.6-0.2-0.9-0.2h-0.4V66.7z"/>
	<path d="M194.4,59.1h1.8l3.6,17h-2.3l-0.6-3.3h-3.4l-0.6,3.3h-2.2L194.4,59.1z M196.6,71l-0.5-2.7c-0.3-1.8-0.6-3.8-0.8-5.9
		c-0.1,1-0.2,2.1-0.4,3.1c-0.2,1-0.4,2.2-0.6,3.3l-0.4,2.2H196.6z"/>
	<path d="M204.5,59.1h7.5v2h-2.6v15h-2.2v-15h-2.6V59.1z"/>
	<path d="M212.8,59.1h2.3l1,6.3l0.2,1.1l0.4,2.5c0.1,0.4,0.1,0.8,0.2,1.1c0,0.3,0.1,0.7,0.1,0.9l0.1,0.8c0-0.2,0-0.3,0.1-0.5
		c0-0.1,0-0.2,0-0.3l0.3-2l0.4-2.6c0-0.2,0.1-0.5,0.1-0.6c0-0.2,0.1-0.4,0.1-0.5l1.1-6.3h2.1l-3.3,17h-1.8L212.8,59.1z"/>
	<path d="M227.2,59.1h2.8c0.9,0,1.6,0.1,2.2,0.3c0.5,0.2,1,0.5,1.5,1c0.6,0.7,1.1,1.6,1.4,2.8c0.3,1.1,0.4,2.7,0.4,4.7
		c0,1.9-0.2,3.4-0.5,4.6c-0.3,1.1-0.8,2-1.5,2.6c-0.8,0.7-2.3,1.1-4.5,1.1h-1.8V59.1z M229.5,74.1c1.4,0,2.3-0.4,2.8-1.3
		c0.5-0.8,0.7-2.5,0.7-4.9c0-2.6-0.2-4.4-0.7-5.4c-0.5-1-1.3-1.5-2.5-1.5h-0.3V74.1z"/>
	<path d="M237.7,59.1h6.1v1.9H240v5.4h3.4v1.9H240v5.8h3.8v1.9h-6.1V59.1z"/>
	<path d="M249.2,59.1h7.5v2h-2.6v15h-2.2v-15h-2.6V59.1z"/>
	<path d="M260,59.1h1.8l3.6,17h-2.3l-0.6-3.3h-3.4l-0.6,3.3h-2.2L260,59.1z M262.2,71l-0.5-2.7c-0.3-1.8-0.6-3.8-0.8-5.9
		c-0.1,1-0.2,2.1-0.4,3.1c-0.2,1-0.4,2.2-0.6,3.3l-0.4,2.2H262.2z"/>
	<path d="M266.8,59.1h3.1c2.4,0,3.6,1.5,3.6,4.5c0,1.2-0.2,2-0.5,2.6c-0.3,0.6-0.9,1-1.7,1.3c0.9,0.4,1.5,0.8,1.9,1.4
		c0.3,0.6,0.5,1.4,0.5,2.6c0,3.1-1.3,4.7-4,4.7h-3V59.1z M268.9,66.6c0.9,0,1.5-0.2,1.8-0.6c0.3-0.4,0.5-1.2,0.5-2.3
		c0-1.8-0.7-2.8-2-2.8h-0.2H269c-0.1,0-0.1,0-0.1,0V66.6z M268.9,74.2c0.9,0,1.6-0.2,1.9-0.6c0.4-0.4,0.5-1.1,0.5-2.2
		c0-1.1-0.2-1.8-0.6-2.3c-0.4-0.4-1-0.7-1.9-0.7V74.2z"/>
	<path d="M284.5,68.1c0,3-0.3,5.1-1,6.4c-0.7,1.3-1.8,1.9-3.4,1.9c-1.7,0-2.8-0.7-3.5-2c-0.7-1.3-1-3.7-1-7.1c0-3,0.3-5.2,1-6.4
		c0.7-1.3,1.8-1.9,3.4-1.9c1.4,0,2.5,0.5,3.2,1.5c0.5,0.7,0.8,1.6,1,2.8C284.4,64.3,284.5,65.9,284.5,68.1z M282.1,68.3
		c0-2.9-0.1-4.9-0.4-5.9c-0.3-1-0.8-1.5-1.6-1.5c-0.8,0-1.4,0.4-1.6,1.3c-0.3,0.9-0.4,2.7-0.4,5.4c0,2.5,0.1,4.2,0.4,5.2
		c0.3,0.9,0.8,1.4,1.6,1.4c0.8,0,1.3-0.4,1.6-1.3C281.9,72.1,282.1,70.6,282.1,68.3z"/>
	<path d="M289.2,59.1h1.8l3.6,17h-2.3l-0.6-3.3h-3.4l-0.6,3.3h-2.2L289.2,59.1z M291.6,55.3h1.3c0,0.7-0.2,1.3-0.5,1.7
		c-0.3,0.4-0.7,0.6-1.2,0.6c-0.3,0-0.7-0.1-1.3-0.4c-0.4-0.2-0.8-0.3-1-0.3c-0.3,0-0.4,0.2-0.5,0.6h-1.3c0-0.3,0-0.6,0.1-0.9
		c0.1-0.3,0.2-0.5,0.3-0.7c0.1-0.2,0.3-0.4,0.5-0.5c0.2-0.1,0.4-0.2,0.7-0.2c0.2,0,0.7,0.2,1.4,0.5c0.5,0.2,0.8,0.3,1,0.3
		C291.5,55.9,291.6,55.7,291.6,55.3z M291.4,71l-0.5-2.7c-0.3-1.8-0.6-3.8-0.8-5.9c-0.1,1-0.2,2.1-0.4,3.1c-0.2,1-0.4,2.2-0.6,3.3
		l-0.4,2.2H291.4z"/>
	<path d="M304.4,68.1c0,3-0.3,5.1-1,6.4c-0.7,1.3-1.8,1.9-3.4,1.9c-1.7,0-2.8-0.7-3.5-2c-0.7-1.3-1-3.7-1-7.1c0-3,0.3-5.2,1-6.4
		c0.7-1.3,1.8-1.9,3.4-1.9c1.4,0,2.5,0.5,3.2,1.5c0.5,0.7,0.8,1.6,1,2.8C304.3,64.3,304.4,65.9,304.4,68.1z M302,68.3
		c0-2.9-0.1-4.9-0.4-5.9c-0.3-1-0.8-1.5-1.6-1.5c-0.8,0-1.4,0.4-1.6,1.3c-0.3,0.9-0.4,2.7-0.4,5.4c0,2.5,0.1,4.2,0.4,5.2
		c0.3,0.9,0.8,1.4,1.6,1.4c0.8,0,1.3-0.4,1.6-1.3C301.8,72.1,302,70.6,302,68.3z"/>
	<path d="M311.3,59.1h2.8c0.9,0,1.6,0.1,2.2,0.3c0.5,0.2,1,0.5,1.5,1c0.6,0.7,1.1,1.6,1.4,2.8c0.3,1.1,0.4,2.7,0.4,4.7
		c0,1.9-0.2,3.4-0.5,4.6c-0.3,1.1-0.8,2-1.5,2.6c-0.8,0.7-2.3,1.1-4.5,1.1h-1.8V59.1z M313.6,74.1c1.4,0,2.3-0.4,2.8-1.3
		c0.5-0.8,0.7-2.5,0.7-4.9c0-2.6-0.2-4.4-0.7-5.4c-0.5-1-1.3-1.5-2.5-1.5h-0.3V74.1z"/>
	<path d="M324.1,59.1h1.8l3.6,17h-2.3l-0.6-3.3h-3.4l-0.6,3.3h-2.2L324.1,59.1z M326.3,71l-0.5-2.7c-0.3-1.8-0.6-3.8-0.8-5.9
		c-0.1,1-0.2,2.1-0.4,3.1c-0.2,1-0.4,2.2-0.6,3.3l-0.4,2.2H326.3z"/>
	<path d="M341.2,59.5v2.2c-0.7-0.5-1.3-0.7-1.9-0.7c-0.6,0-1.1,0.2-1.5,0.6c-0.4,0.4-0.6,0.9-0.6,1.6c0,0.6,0.1,1.1,0.4,1.5
		c0.1,0.2,0.4,0.5,0.7,0.9c0.3,0.4,0.7,0.8,1.2,1.3c0.9,0.9,1.6,1.8,1.9,2.5c0.3,0.7,0.5,1.5,0.5,2.5c0,1.3-0.4,2.4-1.1,3.2
		c-0.7,0.8-1.7,1.2-2.9,1.2c-1,0-1.8-0.3-2.5-0.8v-2.3c0.8,0.6,1.6,0.9,2.2,0.9c0.6,0,1.1-0.2,1.5-0.6c0.4-0.4,0.5-1,0.5-1.7
		c0-0.6-0.1-1.2-0.4-1.7c-0.1-0.2-0.3-0.5-0.6-0.8c-0.2-0.3-0.6-0.6-0.9-1c-0.6-0.6-1.1-1.1-1.4-1.5c-0.4-0.4-0.7-0.8-0.8-1.2
		c-0.4-0.6-0.5-1.5-0.5-2.4c0-1.3,0.3-2.4,1-3.2c0.7-0.8,1.6-1.2,2.8-1.2C339.7,58.9,340.5,59.1,341.2,59.5z"/>
	<path d="M343.9,59.1h6.1v1.9h-3.8v5.4h3.4v1.9h-3.4v5.8h3.8v1.9h-6.1V59.1z"/>
	<path d="M352.1,59.1h3c1.2,0,2.2,0.3,2.8,0.9c0.8,0.8,1.2,1.9,1.2,3.5c0,1.2-0.2,2.2-0.6,2.9c-0.4,0.7-1,1.2-1.7,1.4l3.1,8.3h-2.3
		l-3.1-8.3v8.3h-2.3V59.1z M354.4,66.7c0.9,0,1.5-0.2,1.9-0.6c0.4-0.4,0.6-1.1,0.6-2.1c0-0.5,0-1-0.1-1.4c-0.1-0.4-0.2-0.7-0.4-0.9
		c-0.2-0.2-0.4-0.4-0.6-0.5c-0.3-0.1-0.6-0.2-0.9-0.2h-0.4V66.7z"/>
	<path d="M361.6,59.1h3c1.2,0,2.2,0.3,2.8,0.9c0.8,0.8,1.2,1.9,1.2,3.5c0,1.2-0.2,2.2-0.6,2.9c-0.4,0.7-1,1.2-1.7,1.4l3.1,8.3H367
		l-3.1-8.3v8.3h-2.3V59.1z M363.9,66.7c0.9,0,1.5-0.2,1.9-0.6c0.4-0.4,0.6-1.1,0.6-2.1c0-0.5,0-1-0.1-1.4c-0.1-0.4-0.2-0.7-0.4-0.9
		c-0.2-0.2-0.4-0.4-0.6-0.5c-0.3-0.1-0.6-0.2-0.9-0.2h-0.4V66.7z"/>
	<path d="M373.5,59.1h1.8l3.6,17h-2.3l-0.6-3.3h-3.4l-0.6,3.3h-2.2L373.5,59.1z M375.7,71l-0.5-2.7c-0.3-1.8-0.6-3.8-0.8-5.9
		c-0.1,1-0.2,2.1-0.4,3.1c-0.2,1-0.4,2.2-0.6,3.3L373,71H375.7z"/>
	<path d="M385,59.1h6.1v1.9h-3.8v5.4h3.4v1.9h-3.4v5.8h3.8v1.9H385V59.1z"/>
	<path d="M397.8,59.1h3c1.2,0,2.2,0.3,2.8,0.9c0.8,0.8,1.2,1.9,1.2,3.5c0,1.2-0.2,2.2-0.6,2.9c-0.4,0.7-1,1.2-1.7,1.4l3.1,8.3h-2.3
		l-3.1-8.3v8.3h-2.3V59.1z M400.1,66.7c0.9,0,1.5-0.2,1.9-0.6c0.4-0.4,0.6-1.1,0.6-2.1c0-0.5,0-1-0.1-1.4c-0.1-0.4-0.2-0.7-0.4-0.9
		c-0.2-0.2-0.4-0.4-0.6-0.5c-0.3-0.1-0.6-0.2-0.9-0.2h-0.4V66.7z"/>
	<path d="M407.3,59.1h6.1v1.9h-3.8v5.4h3.4v1.9h-3.4v5.8h3.8v1.9h-6.1V59.1z"/>
	<path d="M419.6,67.2h4.2v0.7c0,3.3-0.3,5.5-0.9,6.7c-0.6,1.2-1.6,1.8-3.2,1.8c-1.6,0-2.8-0.7-3.5-2c-0.7-1.3-1-3.5-1-6.7
		c0-3.6,0.4-5.9,1.1-7.1c0.7-1.1,1.8-1.7,3.2-1.7c1.1,0,2,0.3,2.6,0.8c0.6,0.5,1.1,1.4,1.5,2.7l-2.1,0.9c-0.1-0.4-0.2-0.8-0.3-1.1
		c-0.1-0.3-0.2-0.5-0.4-0.7c-0.3-0.3-0.7-0.5-1.3-0.5c-0.8,0-1.3,0.5-1.6,1.4c-0.3,1-0.4,2.7-0.4,5.3c0,2.6,0.1,4.3,0.4,5.2
		c0.3,0.9,0.8,1.4,1.6,1.4c0.7,0,1.2-0.3,1.5-1c0.3-0.7,0.5-1.8,0.5-3.3v-0.5v-0.3h-2V67.2z"/>
	<path d="M426,59.1h2.3v17H426V59.1z"/>
	<path d="M433.4,59.1h1.8l3.6,17h-2.3l-0.6-3.3h-3.4l-0.6,3.3h-2.2L433.4,59.1z M435.8,55.3h1.3c0,0.7-0.2,1.3-0.5,1.7
		c-0.3,0.4-0.7,0.6-1.2,0.6c-0.3,0-0.7-0.1-1.3-0.4c-0.4-0.2-0.8-0.3-1-0.3c-0.3,0-0.4,0.2-0.5,0.6h-1.3c0-0.3,0-0.6,0.1-0.9
		c0.1-0.3,0.2-0.5,0.3-0.7c0.1-0.2,0.3-0.4,0.5-0.5c0.2-0.1,0.4-0.2,0.7-0.2c0.2,0,0.7,0.2,1.4,0.5c0.5,0.2,0.8,0.3,1,0.3
		C435.7,55.9,435.8,55.7,435.8,55.3z M435.5,71l-0.5-2.7c-0.3-1.8-0.6-3.8-0.8-5.9c-0.1,1-0.2,2.1-0.4,3.1c-0.2,1-0.4,2.2-0.6,3.3
		l-0.4,2.2H435.5z"/>
	<path d="M448.6,68.1c0,3-0.3,5.1-1,6.4c-0.7,1.3-1.8,1.9-3.4,1.9c-1.7,0-2.8-0.7-3.5-2c-0.7-1.3-1-3.7-1-7.1c0-3,0.3-5.2,1-6.4
		c0.7-1.3,1.8-1.9,3.4-1.9c1.4,0,2.5,0.5,3.2,1.5c0.5,0.7,0.8,1.6,1,2.8C448.5,64.3,448.6,65.9,448.6,68.1z M446.2,68.3
		c0-2.9-0.1-4.9-0.4-5.9c-0.3-1-0.8-1.5-1.6-1.5s-1.4,0.4-1.6,1.3c-0.3,0.9-0.4,2.7-0.4,5.4c0,2.5,0.1,4.2,0.4,5.2
		c0.3,0.9,0.8,1.4,1.6,1.4c0.8,0,1.3-0.4,1.6-1.3C446,72.1,446.2,70.6,446.2,68.3z"/>
</g>
</svg>
